<?xml version="1.0" encoding="utf-8"?>
<!-- Generator: Adobe Illustrator 25.1.0, SVG Export Plug-In . SVG Version: 6.00 Build 0)  -->
<svg version="1.1" id="Layer_1" xmlns="http://www.w3.org/2000/svg" xmlns:xlink="http://www.w3.org/1999/xlink" x="0px" y="0px"
	 viewBox="0 0 287.9 94.4" style="enable-background:new 0 0 287.9 94.4;" xml:space="preserve">
<path d="M9.1,73.3c-4.9,0-8.6,5-8.6,10.6c0,4.2,1.8,7.3,6.1,7.3c4.9,0,8.6-5,8.6-10.6C15.2,76.4,13.4,73.3,9.1,73.3z M6.6,90.3
	c-3.7,0-5.2-2.7-5.2-6.4c0-4.9,3.1-9.7,7.7-9.7c3.7,0,5.2,2.7,5.2,6.5C14.3,85.6,11.2,90.3,6.6,90.3z M22.8,89.4
	c0,0.9,0.7,1.7,1.7,1.7c0.9,0,1.6-0.8,1.6-1.7s-0.7-1.7-1.6-1.7C23.5,87.8,22.8,88.5,22.8,89.4z"/>
<path d="M13.7,0.9h-2.4l0.9,2.2L4,23.5c-1.6,3.9-2.4,5-4,5.2v1.1h8.3v-1.1c-2.4,0-3.4-0.6-3.4-2.1c0-0.8,0.3-1.9,0.8-3.3l1.4-3.4h12
	l1.6,3.9c0.5,1.2,0.8,2.1,0.8,2.9c0,1.5-1.1,2-3.7,2.1v1.1h9.4v-1.1c-1.6-0.2-2.6-1.3-4.1-5L13.7,0.9z M13,5.1l5.5,13.4H7.6L13,5.1z
	 M39.3,9.4c-2.7,0-4.9,1.3-6.6,4V0h-0.8l-4.7,1.3v0.8c2.9,0,3.3,0.3,3.3,2.4v25.5h1l0.8-1.9c1.3,1.4,3.4,2.4,6,2.4
	c4.9,0,8.6-3.7,8.6-11C46.9,13.3,43.9,9.4,39.3,9.4z M38.6,29.1c-3.5,0-5.8-2.1-5.8-6.5V15c1.9-2.4,3.7-3.4,5.9-3.4
	c3.6,0,5.8,3.2,5.8,8.6C44.5,26,42.3,29.1,38.6,29.1z M59.1,30.4c5.5,0,9.3-4.3,9.3-10.5c0-6.2-3.7-10.5-9.2-10.5
	c-5.5,0-9.3,4.3-9.3,10.5C49.9,26.1,53.6,30.4,59.1,30.4z M59.3,29.1c-4.7,0-6.7-4.8-6.7-9.7c0-6.7,3.6-8.7,6.5-8.7
	c4.7,0,6.7,4.8,6.7,9.7C65.7,27.1,62.2,29.1,59.3,29.1z M87.6,9.9h-5.3v0.9c2.2,0.3,3.1,0.5,3.1,3.1v10.9c-1.8,2.4-3.5,3.5-5.7,3.5
	c-2.5,0-4.4-1.8-4.4-5.3V9.9h-4.6v0.9c1.7,0.2,2.4,0.6,2.4,2.8v9.8c0,4.5,2.4,7.1,6,7.1c2.7,0,4.6-1.3,6.3-4v3.2l0.6,0.5l4.8-0.6
	v-0.9c-2.6,0-3.2-0.5-3.2-3.1V9.9z M105.5,26.3c-1.4,1.4-2.5,2-3.9,2c-1.8,0-3-1.3-3-3.6V12h6.3V9.9h-6.3V6.4h-1.2
	c-0.6,3.1-2.3,4.2-5.3,4.5V12h4.3v13.1c0,3.2,1.7,5.1,4.7,5.1c2.1,0,3.4-0.8,5.2-3.2L105.5,26.3z M129.5,26.3c-1.4,1.4-2.5,2-3.9,2
	c-1.8,0-3-1.3-3-3.6V12h6.3V9.9h-6.3V6.4h-1.2c-0.6,3.1-2.3,4.2-5.3,4.5V12h4.3v13.1c0,3.2,1.7,5.1,4.7,5.1c2.1,0,3.4-0.8,5.2-3.2
	L129.5,26.3z M150.1,16.5c0-4.4-2.4-7.1-6.3-7.1c-2.7,0-4.7,1.3-6.4,4V0h-0.8l-4.7,1.3v0.8c2.9,0,3.3,0.3,3.3,2.4v21.7
	c0,2.4-1,2.5-3.3,2.7v1h8.6v-1c-2.9-0.2-3.1-0.3-3.1-2.7V15c1.8-2.4,3.6-3.5,5.8-3.5c3,0,4.7,2.1,4.7,5.7V26c0,2.4-0.3,2.6-3.5,2.9
	v1h8.7v-1c-2.8-0.3-3.1-0.5-3.1-2.9V16.5z M171.8,17.7c0-4.8-2.6-8.3-7.4-8.3c-5.2,0-8.9,4.2-8.9,10.6c0,6.5,3.4,10.4,8.7,10.4
	c4.3,0,6.3-2.6,7.2-6.4l-0.9-0.3c-0.9,2.4-2.9,4.1-6,4.1c-4,0-6.9-2.8-6.9-8.4c0-0.5,0-1.1,0.1-1.6H171.8z M164.2,10.8
	c3.7,0,5.1,2.7,5.1,5.7h-11.4C158.8,12.6,161.4,10.8,164.2,10.8z"/>
<path d="M183.6,79.8c0-4.2-2.1-6.4-5.9-6.4c-2.6,0-4.6,1.4-5.8,4c-0.7-2.6-2.5-4-5.5-4c-2.6,0-4.6,1.4-5.7,4v-3.8h-0.8l-4.7,1.1v0.8
	c2.9,0,3.3,0.3,3.3,2.6V90c0,2.2-0.5,2.6-3.3,2.9v1h8.8v-1c-3.1-0.2-3.3-0.3-3.3-2.9V78.9c1.5-2.3,3.2-3.4,5.3-3.4
	c2.5,0,3.9,1.6,3.9,4.5v9.8c0,2.5-0.3,2.8-2.9,3v1h8v-1c-2.8-0.2-3-0.4-3-3V79.8c0-0.4,0-0.8,0-1.2c1.4-2.1,3-3.1,5.1-3.1
	c2.8,0,4.2,1.5,4.2,4.6v9.7c0,2.5-0.3,2.8-3.1,3v1h8.3v-1c-2.8-0.2-3.1-0.5-3.1-3V79.8z M205.3,81.7c0-4.8-2.6-8.3-7.4-8.3
	c-5.2,0-8.9,4.2-8.9,10.6c0,6.5,3.4,10.4,8.7,10.4c4.3,0,6.3-2.6,7.2-6.4l-0.9-0.3c-0.9,2.4-2.9,4.1-6,4.1c-4,0-6.9-2.8-6.9-8.4
	c0-0.5,0-1.1,0.1-1.6H205.3z M197.7,74.8c3.7,0,5.1,2.7,5.1,5.7h-11.4C192.2,76.6,194.9,74.8,197.7,74.8z M220.3,90.3
	c-1.4,1.4-2.5,2-3.9,2c-1.8,0-3-1.3-3-3.6V76h6.3v-2.1h-6.3v-3.5h-1.2c-0.6,3.1-2.3,4.2-5.3,4.5V76h4.3v13.1c0,3.2,1.7,5.1,4.7,5.1
	c2.1,0,3.4-0.8,5.2-3.2L220.3,90.3z M240.9,80.5c0-4.4-2.4-7.1-6.3-7.1c-2.7,0-4.7,1.3-6.4,4V64h-0.8l-4.7,1.3v0.8
	c2.9,0,3.3,0.3,3.3,2.4v21.7c0,2.4-1,2.5-3.3,2.7v1h8.6v-1c-2.9-0.2-3.1-0.3-3.1-2.7V79c1.8-2.4,3.6-3.5,5.8-3.5
	c3,0,4.7,2.1,4.7,5.7V90c0,2.4-0.3,2.6-3.5,2.9v1h8.7v-1c-2.8-0.3-3.1-0.5-3.1-2.9V80.5z M255.5,94.4c5.5,0,9.3-4.3,9.3-10.5
	c0-6.2-3.7-10.5-9.2-10.5c-5.5,0-9.3,4.3-9.3,10.5C246.3,90.1,250.1,94.4,255.5,94.4z M255.7,93.1c-4.7,0-6.7-4.8-6.7-9.7
	c0-6.7,3.6-8.7,6.5-8.7c4.7,0,6.7,4.8,6.7,9.7C262.2,91.1,258.6,93.1,255.7,93.1z M284.1,89.2V64h-0.8l-5.5,1.3v0.8
	c3.6,0,4.2,0.3,4.2,2.4v7c-1.2-1.5-3.4-2.1-5.4-2.1c-5.2,0-8.8,3.7-8.8,11c0,6,3,10,7.9,10c2.7,0,4.7-1.3,6.3-4l0.1,3.1l0.5,0.4h5.4
	v-1C284.8,92.6,284.1,92.1,284.1,89.2z M276.1,92.2c-3.7,0-5.9-3.2-5.9-8.6c0-5.7,2.2-8.8,6.2-8.8c3.2,0,5.5,2.2,5.5,5.7v8.4
	C280.1,91.2,278.3,92.2,276.1,92.2z"/>
</svg>
