<?xml version="1.0" encoding="utf-8"?>
<!-- Generator: Adobe Illustrator 25.1.0, SVG Export Plug-In . SVG Version: 6.00 Build 0)  -->
<svg version="1.1" id="Layer_1" xmlns="http://www.w3.org/2000/svg" xmlns:xlink="http://www.w3.org/1999/xlink" x="0px" y="0px"
	 viewBox="0 0 287.5 93.4" style="enable-background:new 0 0 287.5 93.4;" xml:space="preserve">
<path d="M10.7,29.8c10.9,0,17.2-5.1,17.2-14.1c0-9.3-6-14.5-16.8-14.5H0.5v1.1c3.5,0,4,0.6,4,3.7v19.1c0,3.1-0.5,3.6-4,3.7v1.1H10.7
	z M11.2,28.6c-3.1,0-4.3-1.2-4.3-4.5V2.4h4.7c8.4,0,13.5,5.1,13.5,13.4C25.1,23.4,19.6,28.6,11.2,28.6z M43.3,9.4
	c-2.2,0-4.8,3.4-6.1,7.1V9.7h-0.8l-4.7,1v0.8c2.9,0,3.3,0.3,3.3,2.6V26c0,2.2-0.5,2.6-3.3,2.9v1h9.6v-1c-3.9-0.2-4.1-0.3-4.1-2.9
	v-7.3c1.2-3.4,2.5-5.6,4-6.7c1.1,0.5,1.1,2.1,2.6,2.1c1.1,0,2.1-1,2.1-2.3C45.8,10.5,44.8,9.4,43.3,9.4z M52.8,5.2
	c1.2,0,2.1-0.9,2.1-2.2S54,0.9,52.8,0.9s-2.1,0.9-2.1,2.2S51.5,5.2,52.8,5.2z M57.5,29.8v-1c-2.9-0.2-3.5-0.4-3.5-3.2v-16h-0.8
	l-4.8,1v0.8c3,0,3.5,0.3,3.5,2.6v11.5c0,2.7-0.8,3-3.4,3.2v1H57.5z M78.6,16.5c0-4.4-2.4-7.1-6.3-7.1c-2.7,0-4.7,1.3-6.4,4V9.7h-0.8
	l-4.7,1v0.8c2.9,0,3.3,0.3,3.3,2.6V26c0,2.2-0.5,2.6-3.3,2.9v1h8.8v-1c-3.1-0.2-3.3-0.3-3.3-2.9V15c1.8-2.4,3.6-3.5,5.8-3.5
	c3,0,4.7,2.1,4.7,5.7V26c0,2.4-0.3,2.6-3.5,2.9v1h8.7v-1c-2.8-0.3-3.1-0.5-3.1-2.9V16.5z M104.1,9.9h-7.9v1c1.7,0,2.4,0.3,2.4,1
	c0,0.5-0.3,1.1-1.3,1.9l-7.4,6.5V0h-0.8l-4.7,1.3v0.8c2.9,0,3.3,0.3,3.3,2.4v21.7c0,2-0.5,2.4-3.3,2.7v1h8.7v-1
	c-2.5-0.2-3.1-0.7-3.1-2.7v-4l2.6-2.3l4.8,5.7c0.9,1,1.3,1.7,1.3,2.1c0,0.6-0.4,1.1-2.2,1.2v1h7.8v-1c-1.6-0.4-2.2-1-3.7-2.9
	l-6.2-7.6L98,15c3.3-2.9,4.5-3.9,6.2-4.1V9.9z M111.2,5.2c1.2,0,2.1-0.9,2.1-2.2s-0.9-2.2-2.1-2.2c-1.2,0-2.1,0.9-2.1,2.2
	S110,5.2,111.2,5.2z M115.9,29.8v-1c-2.9-0.2-3.5-0.4-3.5-3.2v-16h-0.8l-4.8,1v0.8c3,0,3.5,0.3,3.5,2.6v11.5c0,2.7-0.8,3-3.4,3.2v1
	H115.9z M137,16.5c0-4.4-2.4-7.1-6.3-7.1c-2.7,0-4.7,1.3-6.4,4V9.7h-0.8l-4.7,1v0.8c2.9,0,3.3,0.3,3.3,2.6V26c0,2.2-0.5,2.6-3.3,2.9
	v1h8.8v-1c-3.1-0.2-3.3-0.3-3.3-2.9V15c1.8-2.4,3.6-3.5,5.8-3.5c3,0,4.7,2.1,4.7,5.7V26c0,2.4-0.3,2.6-3.5,2.9v1h8.7v-1
	c-2.8-0.3-3.1-0.5-3.1-2.9V16.5z M155.1,9.9c-0.9-0.3-2-0.5-3.1-0.5c-4.5,0-7.5,2.7-7.5,6.8c0,2.3,1,4.2,2.6,5.4
	c-2.2,1.2-3.4,2.5-3.4,4.3c0,1.6,0.9,2.8,2.4,3.4c-2,1.1-3.1,2.4-3.1,4.1c0,3.2,3.6,5.5,9.4,5.5c6.1,0,10.3-2.4,10.3-6.8
	c0-2.8-1.7-4.5-5.5-4.5h-7.9c-2.4,0-3.7-0.8-3.7-2.3c0-1,0.7-2.2,2.5-3.2c1.1,0.5,2.4,0.8,3.9,0.8c4.5,0,7.5-2.7,7.5-6.8
	c0-1.6-0.5-3.1-1.3-4.2h4.7V9.9H155.1z M152.1,21.6c-3.4,0-5.2-2.6-5.2-5.8c0-3.5,2.3-5.1,4.9-5.1c3.4,0,5.2,2.6,5.2,5.8
	C157,20,154.8,21.6,152.1,21.6z M156.5,29.8c2.8,0,4.2,1.2,4.2,3.2c0,2.9-3.2,4.6-8.1,4.6c-4.5,0-7.1-1.6-7.1-4.5
	c0-1.3,0.4-2.3,1.6-3.5c0.5,0.1,1,0.2,1.6,0.2H156.5z"/>
<path d="M3.1,76.7l0.4,0.7l6.4-3.9L6.7,88.5L6.1,89H0.2L0,89.8h13.5l0.2-0.8H8l-0.4-0.5L11,72.7H9.7L3.1,76.7z M23.1,88.4
	c0,0.9,0.7,1.7,1.7,1.7c0.9,0,1.6-0.8,1.6-1.7s-0.7-1.7-1.6-1.7C23.8,86.8,23.1,87.5,23.1,88.4z"/>
<path d="M207.5,73.9c2.2,0,2.9,0.5,2.9,1.5c0,0.7-0.1,1.6-1,4l-4,10.9l-4.2-12c-0.4-1.2-0.6-2.1-0.6-2.8c0-1.3,0.8-1.6,2.9-1.6v-1
	h-8.4v1c2,0.1,2.5,0.5,3.4,3l0.5,1.4l-4.8,12.1l-4.8-13.5c-0.2-0.6-0.3-1.1-0.3-1.5c0-1,0.8-1.5,2.9-1.6v-1h-7.5v1
	c1.2,0,1.6,0.6,2.6,3.5l5.8,15.7h1.7l5-12.9l4.5,12.9h1.7l5.8-15.9c0.8-2.3,1.3-3.2,2.6-3.3v-1h-6.7V73.9z M234.9,88.2
	c-0.5,2.1-1,3-2.2,3c-1,0-1.6-0.4-1.6-2.4v-9.9c0-4.5-2.4-6.5-6.2-6.5c-3.9,0-8.1,3.1-8.1,6.3c0,1.6,0.9,2.7,2.3,2.7
	c1.2,0,2.1-0.8,2.1-2c0-1.6-1.5-2-1.9-3.7c1.3-0.9,3.1-1.6,4.9-1.6c3,0,4.7,1.5,4.7,5.2v2.2l-5.4,1.8c-3.5,1.2-5.8,2.7-5.8,5.6
	c0,2.8,2,4.5,5,4.5c2.6,0,4.7-1.5,6.2-4.6v0.3c0,2.8,1.3,4.1,3.2,4.1c2.4,0,3.2-1.8,3.7-4.7L234.9,88.2z M223.3,91.5
	c-2.1,0-3.2-1-3.2-2.9c0-2.2,1.7-3.2,4.3-4.1l4.5-1.6V87C227.4,90,225.3,91.5,223.3,91.5z M250.6,89.3c-1.4,1.4-2.5,2-3.9,2
	c-1.8,0-3-1.3-3-3.6V75h6.3v-2.1h-6.3v-3.5h-1.2c-0.6,3.1-2.3,4.2-5.3,4.5V75h4.3v13.1c0,3.2,1.7,5.1,4.7,5.1c2.1,0,3.4-0.8,5.2-3.2
	L250.6,89.3z M270,80.7c0-4.8-2.6-8.3-7.4-8.3c-5.2,0-8.9,4.2-8.9,10.6c0,6.5,3.4,10.4,8.7,10.4c4.3,0,6.3-2.6,7.2-6.4l-0.9-0.3
	c-0.9,2.4-2.9,4.1-6,4.1c-4,0-6.9-2.8-6.9-8.4c0-0.5,0-1.1,0.1-1.6H270z M262.4,73.8c3.7,0,5.1,2.7,5.1,5.7h-11.4
	C256.9,75.6,259.6,73.8,262.4,73.8z M284.9,72.4c-2.2,0-4.8,3.4-6.1,7.1v-6.8H278l-4.7,1.1v0.8c2.9,0,3.3,0.3,3.3,2.6V89
	c0,2.2-0.5,2.6-3.3,2.9v1h9.6v-1c-3.9-0.2-4.1-0.3-4.1-2.9v-7.3c1.2-3.4,2.5-5.6,4-6.7c1.1,0.5,1.1,2.1,2.6,2.1c1.1,0,2.1-1,2.1-2.3
	C287.5,73.5,286.4,72.4,284.9,72.4z"/>
</svg>
