<?xml version="1.0" encoding="utf-8"?>
<!-- Generator: Adobe Illustrator 25.1.0, SVG Export Plug-In . SVG Version: 6.00 Build 0)  -->
<svg version="1.1" id="Layer_1" xmlns="http://www.w3.org/2000/svg" xmlns:xlink="http://www.w3.org/1999/xlink" x="0px" y="0px"
	 viewBox="0 0 288.1 111" style="enable-background:new 0 0 288.1 111;" xml:space="preserve">
<path d="M3.7,12.9c1.7-2,3.9-3.6,6.4-3.6c2.2,0,3.5,1,3.5,3c0,2.4-2.1,4.3-5.2,6.6L0.2,25l-0.2,1h12.5l1-4.9h-0.8l-0.8,3.5l-0.6,0.5
	H1.4L9,19.5c2.9-2.1,5.6-4.5,5.6-7.3c0-2.3-1.6-3.8-4.4-3.8S4.9,10.2,3,12.3L3.7,12.9z M23.6,24.6c0,0.9,0.7,1.7,1.7,1.7
	c0.9,0,1.6-0.8,1.6-1.7s-0.7-1.7-1.6-1.7C24.3,22.9,23.6,23.6,23.6,24.6z"/>
<path d="M234.6,8.5c-2.2,0-4.8,3.4-6.1,7.1V8.8h-0.8l-4.7,1v0.8c2.9,0,3.3,0.3,3.3,2.6v11.8c0,2.2-0.5,2.6-3.3,2.9v1h9.6v-1
	c-3.9-0.2-4.1-0.3-4.1-2.9v-7.3c1.2-3.4,2.5-5.6,4-6.7c1.1,0.5,1.1,2.1,2.6,2.1c1.1,0,2.1-1,2.1-2.3C237.1,9.6,236.1,8.5,234.6,8.5z
	 M244,4.4c1.2,0,2.1-0.9,2.1-2.2S245.2,0,244,0s-2.1,0.9-2.1,2.2S242.8,4.4,244,4.4z M248.7,28.9v-1c-2.9-0.2-3.5-0.4-3.5-3.2v-16
	h-0.8l-4.8,1v0.8c3,0,3.5,0.3,3.5,2.6v11.5c0,2.7-0.8,3-3.4,3.2v1H248.7z M260.7,29.5c4.4,0,6.3-2.6,7.3-6.4l-0.9-0.3
	c-0.9,2.4-2.9,4.1-6,4.1c-4,0-6.9-2.8-6.9-8.4c0-5.2,3.2-8.6,7.1-8.6c1.6,0,2.7,0.4,3.9,1.2c-0.4,1.3-1.6,1.8-1.6,3.3
	c0,1.3,0.9,2.1,2.1,2.1c1.4,0,2.3-1.2,2.3-2.9c0-3-2.9-5.1-6.6-5.1c-5.7,0-9.3,4.3-9.3,11C252.1,25.7,255.5,29.5,260.7,29.5z
	 M288.1,16.8c0-4.8-2.6-8.3-7.4-8.3c-5.2,0-8.9,4.2-8.9,10.6c0,6.5,3.4,10.4,8.7,10.4c4.3,0,6.3-2.6,7.2-6.4l-0.9-0.3
	c-0.9,2.4-2.9,4.1-6,4.1c-4,0-6.9-2.8-6.9-8.4c0-0.5,0-1.1,0.1-1.6H288.1z M280.5,9.9c3.7,0,5.1,2.7,5.1,5.7h-11.4
	C275,11.7,277.7,9.9,280.5,9.9z"/>
<path d="M14.8,102.5c4.2,0,8.3-1,11.5-2.6l0.3-7.9h-1.3c-1.4,6.7-4.3,9.2-10.3,9.2c-7.3,0-11.9-5.2-11.9-13.7
	c0-8.4,4.5-13.2,12.1-13.2c5.3,0,8.3,2.3,9.6,8.1H26v-9.1h-1.3c-0.2,1-0.5,1.3-0.9,1.3c-0.9,0-3.6-1.7-8.7-1.7
	c-9,0-14.9,6.1-14.9,15C0.3,96.6,6.1,102.5,14.8,102.5z M39.8,102.5c5.5,0,9.3-4.3,9.3-10.5c0-6.2-3.7-10.5-9.2-10.5
	c-5.5,0-9.3,4.3-9.3,10.5C30.6,98.2,34.4,102.5,39.8,102.5z M40,101.2c-4.7,0-6.7-4.8-6.7-9.7c0-6.7,3.6-8.7,6.5-8.7
	c4.7,0,6.7,4.8,6.7,9.7C46.5,99.2,42.9,101.2,40,101.2z M68.8,82h-5.3v0.9c2.2,0.3,3.1,0.5,3.1,3.1v10.9c-1.8,2.4-3.5,3.5-5.7,3.5
	c-2.5,0-4.4-1.8-4.4-5.3V82h-4.6v0.9c1.7,0.2,2.4,0.6,2.4,2.8v9.8c0,4.5,2.4,7.1,6,7.1c2.7,0,4.6-1.3,6.3-4v3.2l0.6,0.5l4.8-0.6
	v-0.9c-2.6,0-3.2-0.5-3.2-3.1V82z M92.3,88.6c0-4.4-2.4-7.1-6.3-7.1c-2.7,0-4.7,1.3-6.4,4v-3.8h-0.8l-4.7,1.1v0.8
	c2.9,0,3.3,0.3,3.3,2.6v11.8c0,2.2-0.5,2.6-3.3,2.9v1h8.8v-1c-3.1-0.2-3.3-0.3-3.3-2.9v-11c1.8-2.4,3.6-3.5,5.8-3.5
	c3,0,4.7,2.1,4.7,5.7v8.8c0,2.4-0.3,2.6-3.5,2.9v1h8.7v-1c-2.8-0.3-3.1-0.5-3.1-2.9V88.6z M110.7,98.5c-1.4,1.4-2.5,2-3.9,2
	c-1.8,0-3-1.3-3-3.6V84.1h6.3V82h-6.3v-3.5h-1.2c-0.6,3.1-2.3,4.2-5.3,4.5v1.2h4.3v13.1c0,3.2,1.7,5.1,4.7,5.1
	c2.1,0,3.4-0.8,5.2-3.2L110.7,98.5z M118,77.4c1.2,0,2.1-0.9,2.1-2.2c0-1.3-0.9-2.2-2.1-2.2c-1.2,0-2.1,0.9-2.1,2.2
	C115.9,76.4,116.8,77.4,118,77.4z M122.7,101.9v-1c-2.9-0.2-3.5-0.4-3.5-3.1v-16h-0.8l-4.8,1.1v0.8c3,0,3.5,0.3,3.5,2.6v11.6
	c0,2.7-0.8,3-3.4,3.1v1H122.7z M143.4,88.6c0-4.4-2.4-7.1-6.3-7.1c-2.7,0-4.7,1.3-6.4,4v-3.8h-0.8l-4.7,1.1v0.8
	c2.9,0,3.3,0.3,3.3,2.6v11.8c0,2.2-0.5,2.6-3.3,2.9v1h8.8v-1c-3.1-0.2-3.3-0.3-3.3-2.9v-11c1.8-2.4,3.6-3.5,5.8-3.5
	c3,0,4.7,2.1,4.7,5.7v8.8c0,2.4-0.3,2.6-3.5,2.9v1h8.7v-1c-2.8-0.3-3.1-0.5-3.1-2.9V88.6z M161.1,82c-0.9-0.3-2-0.5-3.1-0.5
	c-4.5,0-7.5,2.7-7.5,6.8c0,2.3,1,4.2,2.6,5.4c-2.2,1.2-3.4,2.5-3.4,4.3c0,1.6,0.9,2.8,2.4,3.4c-2,1.1-3.1,2.4-3.1,4.1
	c0,3.2,3.6,5.5,9.4,5.5c6.1,0,10.3-2.4,10.3-6.8c0-2.8-1.7-4.5-5.5-4.5h-7.9c-2.4,0-3.7-0.8-3.7-2.3c0-1.1,0.7-2.2,2.5-3.2
	c1.1,0.5,2.4,0.8,3.9,0.8c4.5,0,7.5-2.7,7.5-6.8c0-1.6-0.5-3.1-1.3-4.2h4.7V82H161.1z M158.1,93.7c-3.4,0-5.2-2.6-5.2-5.8
	c0-3.5,2.3-5.1,4.9-5.1c3.4,0,5.2,2.6,5.2,5.8C163.1,92.2,160.8,93.7,158.1,93.7z M162.5,101.9c2.8,0,4.2,1.2,4.2,3.2
	c0,2.9-3.2,4.6-8.1,4.6c-4.5,0-7.1-1.6-7.1-4.5c0-1.3,0.4-2.3,1.6-3.5c0.5,0.1,1,0.2,1.6,0.2H162.5z"/>
</svg>
