<?xml version="1.0" encoding="utf-8"?>
<!-- Generator: Adobe Illustrator 25.1.0, SVG Export Plug-In . SVG Version: 6.00 Build 0)  -->
<svg version="1.1" id="Layer_1" xmlns="http://www.w3.org/2000/svg" xmlns:xlink="http://www.w3.org/1999/xlink" x="0px" y="0px"
	 viewBox="0 0 287.2 101.9" style="enable-background:new 0 0 287.2 101.9;" xml:space="preserve">
<path d="M4.8,80.6l0.5,0.7c1.1-0.6,2.4-0.8,3.7-0.8c2.6,0,3.5,1.5,3.5,3c0,5-5.9,7.4-12.5,8.5l0,0.9c6.4-0.9,13.4-3.6,13.4-9.3
	c0-2.2-1.4-3.9-4.4-3.9c-0.7,0-1.7,0.2-2.4,0.4l8.4-6.3l0.2-1.1H4.1l-0.2,0.9h10L4.8,80.6z M23.5,88.4c0,0.9,0.7,1.7,1.7,1.7
	c0.9,0,1.6-0.8,1.6-1.7s-0.7-1.7-1.6-1.7C24.2,86.8,23.5,87.5,23.5,88.4z"/>
<path d="M9.5,30.4c5.5,0,8.6-2.7,8.6-7.3c0-3.6-1.8-5.8-5.7-7.8l-4.3-2.1c-3.7-1.9-4.9-3.7-4.9-6.3c0-3.1,2.4-4.8,6.2-4.8
	c5,0,7.1,2.4,7.4,8.1h1.3V1h-1.3c-0.1,0.9-0.4,1.3-0.7,1.3c-0.7,0-2.5-1.7-6.6-1.7C4.3,0.7,1,3.2,1,7.4c0,3.5,1.7,5.9,6,8l4.1,2.1
	c3.6,1.8,4.8,3.5,4.8,6.5c0,3.2-2.2,5-6.3,5c-5,0-7.5-3-7.8-9.2H0.6V30h1.3c0.1-0.9,0.4-1.3,0.7-1.3C3.2,28.7,5.5,30.4,9.5,30.4z
	 M27.1,26.3V0h-0.8l-4.7,1.3v0.8c2.9,0,3.3,0.3,3.3,2.4v21.8c0,2.2-0.9,2.3-3.4,2.5v1h9.1v-1C27.4,28.6,27.1,28.5,27.1,26.3z
	 M42.3,30.4c5.5,0,9.3-4.3,9.3-10.5c0-6.2-3.7-10.5-9.2-10.5c-5.5,0-9.3,4.3-9.3,10.5C33.1,26.1,36.8,30.4,42.3,30.4z M42.5,29.1
	c-4.7,0-6.7-4.8-6.7-9.7c0-6.7,3.6-8.7,6.5-8.7c4.7,0,6.7,4.8,6.7,9.7C48.9,27.1,45.4,29.1,42.5,29.1z M76.1,10.9
	c2.2,0,2.9,0.5,2.9,1.5c0,0.7-0.1,1.6-1,4l-4,10.9l-4.2-12c-0.4-1.2-0.6-2.1-0.6-2.8c0-1.3,0.8-1.6,2.9-1.6v-1h-8.4v1
	c2,0.1,2.5,0.5,3.4,3l0.5,1.4l-4.8,12.1L58,13.9c-0.2-0.6-0.3-1.1-0.3-1.5c0-1,0.8-1.5,2.9-1.6v-1h-7.5v1c1.2,0,1.6,0.6,2.6,3.5
	l5.8,15.7h1.7l5-12.9l4.5,12.9h1.7l5.8-15.9c0.8-2.3,1.3-3.2,2.6-3.3v-1h-6.7V10.9z M121.1,15.8c0-4.2-2.1-6.4-5.9-6.4
	c-2.6,0-4.6,1.4-5.8,4c-0.7-2.6-2.5-4-5.5-4c-2.6,0-4.6,1.4-5.7,4V9.7h-0.8l-4.7,1v0.8c2.9,0,3.3,0.3,3.3,2.6V26
	c0,2.2-0.5,2.6-3.3,2.9v1h8.8v-1c-3.1-0.2-3.3-0.3-3.3-2.9V14.9c1.5-2.3,3.2-3.4,5.3-3.4c2.5,0,3.9,1.6,3.9,4.5v9.8
	c0,2.5-0.3,2.8-2.9,3v1h8v-1c-2.8-0.2-3-0.4-3-3V15.8c0-0.4,0-0.8,0-1.2c1.4-2.1,3-3.1,5.1-3.1c2.8,0,4.2,1.5,4.2,4.6v9.7
	c0,2.5-0.3,2.8-3.1,3v1h8.3v-1c-2.8-0.2-3.1-0.5-3.1-3V15.8z M135.7,30.4c5.5,0,9.3-4.3,9.3-10.5c0-6.2-3.7-10.5-9.2-10.5
	c-5.5,0-9.3,4.3-9.3,10.5C126.5,26.1,130.3,30.4,135.7,30.4z M135.9,29.1c-4.7,0-6.7-4.8-6.7-9.7c0-6.7,3.6-8.7,6.5-8.7
	c4.7,0,6.7,4.8,6.7,9.7C142.4,27.1,138.8,29.1,135.9,29.1z M160.1,26.3c-1.4,1.4-2.5,2-3.9,2c-1.8,0-3-1.3-3-3.6V12h6.3V9.9h-6.3
	V6.4H152c-0.6,3.1-2.3,4.2-5.3,4.5V12h4.3v13.1c0,3.2,1.7,5.1,4.7,5.1c2.1,0,3.4-0.8,5.2-3.2L160.1,26.3z M167,5.2
	c1.2,0,2.1-0.9,2.1-2.2s-0.9-2.2-2.1-2.2s-2.1,0.9-2.1,2.2S165.8,5.2,167,5.2z M171.7,29.8v-1c-2.9-0.2-3.5-0.4-3.5-3.2v-16h-0.8
	l-4.8,1v0.8c3,0,3.5,0.3,3.5,2.6v11.5c0,2.7-0.8,3-3.4,3.2v1H171.7z M183.4,30.4c5.5,0,9.3-4.3,9.3-10.5c0-6.2-3.7-10.5-9.2-10.5
	c-5.5,0-9.3,4.3-9.3,10.5C174.3,26.1,178,30.4,183.4,30.4z M183.6,29.1c-4.7,0-6.7-4.8-6.7-9.7c0-6.7,3.6-8.7,6.5-8.7
	c4.7,0,6.7,4.8,6.7,9.7C190.1,27.1,186.5,29.1,183.6,29.1z M213.5,16.5c0-4.4-2.4-7.1-6.3-7.1c-2.7,0-4.7,1.3-6.4,4V9.7h-0.8l-4.7,1
	v0.8c2.9,0,3.3,0.3,3.3,2.6V26c0,2.2-0.5,2.6-3.3,2.9v1h8.8v-1c-3.1-0.2-3.3-0.3-3.3-2.9V15c1.8-2.4,3.6-3.5,5.8-3.5
	c3,0,4.7,2.1,4.7,5.7V26c0,2.4-0.3,2.6-3.5,2.9v1h8.7v-1c-2.8-0.3-3.1-0.5-3.1-2.9V16.5z"/>
<path d="M171.7,73.9c2.2,0,2.9,0.5,2.9,1.5c0,0.7-0.1,1.6-1,4l-4,10.9l-4.2-12c-0.4-1.2-0.6-2.1-0.6-2.8c0-1.3,0.8-1.6,2.9-1.6v-1
	h-8.4v1c2,0.1,2.5,0.5,3.4,3l0.5,1.4l-4.8,12.1l-4.8-13.5c-0.2-0.6-0.3-1.1-0.3-1.5c0-1,0.8-1.5,2.9-1.6v-1h-7.5v1
	c1.2,0,1.6,0.6,2.6,3.5l5.8,15.7h1.7l5-12.9l4.5,12.9h1.7l5.8-15.9c0.8-2.3,1.3-3.2,2.6-3.3v-1h-6.7V73.9z M198.2,88.2
	c-0.5,2.1-1,3-2.2,3c-1,0-1.6-0.4-1.6-2.4v-9.9c0-4.5-2.4-6.5-6.2-6.5c-3.9,0-8.1,3.1-8.1,6.3c0,1.6,0.9,2.7,2.3,2.7
	c1.2,0,2.1-0.8,2.1-2c0-1.6-1.5-2-1.9-3.7c1.3-0.9,3.1-1.6,4.9-1.6c3,0,4.7,1.5,4.7,5.2v2.2l-5.4,1.8c-3.5,1.2-5.8,2.7-5.8,5.6
	c0,2.8,2,4.5,5,4.5c2.6,0,4.7-1.5,6.2-4.6v0.3c0,2.8,1.3,4.1,3.2,4.1c2.4,0,3.2-1.8,3.7-4.7L198.2,88.2z M186.6,91.5
	c-2.1,0-3.2-1-3.2-2.9c0-2.2,1.7-3.2,4.3-4.1l4.5-1.6V87C190.7,90,188.6,91.5,186.6,91.5z M205.7,89.3V63h-0.8l-4.7,1.3v0.8
	c2.9,0,3.3,0.3,3.3,2.4v21.8c0,2.2-0.9,2.3-3.4,2.5v1h9.1v-1C206.1,91.6,205.7,91.5,205.7,89.3z M231.1,72.9h-7.9v1
	c1.7,0,2.4,0.3,2.4,1c0,0.5-0.3,1.1-1.3,1.9l-7.4,6.5V63H216l-4.7,1.3v0.8c2.9,0,3.3,0.3,3.3,2.4v21.7c0,2-0.5,2.4-3.3,2.7v1h8.7v-1
	c-2.5-0.2-3.1-0.7-3.1-2.7v-4l2.6-2.3l4.8,5.7c0.9,1,1.3,1.7,1.3,2.1c0,0.6-0.4,1.1-2.2,1.2v1h7.8v-1c-1.6-0.4-2.2-1-3.7-2.9
	l-6.2-7.6l3.8-3.4c3.3-2.9,4.5-3.9,6.2-4.1V72.9z M237.2,68.2c1.2,0,2.1-0.9,2.1-2.2c0-1.3-0.9-2.2-2.1-2.2c-1.2,0-2.1,0.9-2.1,2.2
	C235.1,67.3,236,68.2,237.2,68.2z M242,92.8v-1c-2.9-0.2-3.5-0.4-3.5-3.1v-16h-0.8l-4.8,1.1v0.8c3,0,3.5,0.3,3.5,2.6v11.6
	c0,2.7-0.8,3-3.4,3.1v1H242z M262.2,79.5c0-4.4-2.4-7.1-6.3-7.1c-2.7,0-4.7,1.3-6.4,4v-3.8h-0.8l-4.7,1.1v0.8c2.9,0,3.3,0.3,3.3,2.6
	V89c0,2.2-0.5,2.6-3.3,2.9v1h8.8v-1c-3.1-0.2-3.3-0.3-3.3-2.9V78c1.8-2.4,3.6-3.5,5.8-3.5c3,0,4.7,2.1,4.7,5.7V89
	c0,2.4-0.3,2.6-3.5,2.9v1h8.7v-1c-2.8-0.3-3.1-0.5-3.1-2.9V79.5z M279.5,72.9c-0.9-0.3-2-0.5-3.1-0.5c-4.5,0-7.5,2.7-7.5,6.8
	c0,2.3,1,4.2,2.6,5.4c-2.2,1.2-3.4,2.5-3.4,4.3c0,1.6,0.9,2.8,2.4,3.4c-2,1.1-3.1,2.4-3.1,4.1c0,3.2,3.6,5.5,9.4,5.5
	c6.1,0,10.3-2.4,10.3-6.8c0-2.8-1.7-4.5-5.5-4.5h-7.9c-2.4,0-3.7-0.8-3.7-2.3c0-1,0.7-2.2,2.5-3.2c1.1,0.5,2.4,0.8,3.9,0.8
	c4.5,0,7.5-2.7,7.5-6.8c0-1.6-0.5-3.1-1.3-4.2h4.7v-2.1H279.5z M276.5,84.6c-3.4,0-5.2-2.6-5.2-5.8c0-3.5,2.3-5.1,4.9-5.1
	c3.4,0,5.2,2.6,5.2,5.8C281.4,83,279.2,84.6,276.5,84.6z M280.9,92.8c2.8,0,4.2,1.2,4.2,3.2c0,2.9-3.2,4.6-8.1,4.6
	c-4.5,0-7.1-1.6-7.1-4.5c0-1.3,0.4-2.3,1.6-3.5c0.5,0.1,1,0.2,1.6,0.2H280.9z"/>
</svg>
