<?xml version="1.0" encoding="utf-8"?>
<!-- Generator: Adobe Illustrator 25.1.0, SVG Export Plug-In . SVG Version: 6.00 Build 0)  -->
<svg version="1.1" id="Layer_1" xmlns="http://www.w3.org/2000/svg" xmlns:xlink="http://www.w3.org/1999/xlink" x="0px" y="0px"
	 viewBox="0 0 288.9 101.9" style="enable-background:new 0 0 288.9 101.9;" xml:space="preserve">
<path d="M30.5,6.5c-0.3-3.6,0.1-4.1,3.6-4.2V1.3h-6.4L18.2,27L8.5,1.3H2.2v1.1C5.6,2.4,6,2.8,5.7,6.5L4,24.4c-0.3,3.7-1,4.3-4,4.4
	v1.1h10.2v-1.1c-4.4-0.1-4.9-0.6-4.6-4.4L7.4,5l9.5,24.9h2L28.1,5l1.8,19.3c0.3,3.8-0.4,4.4-4.6,4.5v1.1h10.8v-1.1
	c-2.9-0.1-3.6-0.7-3.9-4.3L30.5,6.5z M55.3,9.9h-5.3v0.9c2.2,0.3,3.1,0.5,3.1,3.1v10.9c-1.8,2.4-3.5,3.5-5.7,3.5
	c-2.5,0-4.4-1.8-4.4-5.3V9.9h-4.6v0.9c1.7,0.2,2.4,0.6,2.4,2.8v9.8c0,4.5,2.4,7.1,6,7.1c2.7,0,4.6-1.3,6.3-4v3.2l0.6,0.5l4.8-0.6
	v-0.9c-2.6,0-3.2-0.5-3.2-3.1V9.9z M73.7,26.3c-1.4,1.4-2.5,2-3.9,2c-1.8,0-3-1.3-3-3.6V12h6.3V9.9h-6.3V6.4h-1.2
	c-0.6,3.1-2.3,4.2-5.3,4.5V12h4.3v13.1c0,3.2,1.7,5.1,4.7,5.1c2.1,0,3.4-0.8,5.2-3.2L73.7,26.3z M93.2,9.9h-5.3v0.9
	c2.2,0.3,3.1,0.5,3.1,3.1v10.9c-1.8,2.4-3.5,3.5-5.7,3.5c-2.5,0-4.4-1.8-4.4-5.3V9.9h-4.6v0.9c1.7,0.2,2.4,0.6,2.4,2.8v9.8
	c0,4.5,2.4,7.1,6,7.1c2.7,0,4.6-1.3,6.3-4v3.2l0.6,0.5l4.8-0.6v-0.9c-2.6,0-3.2-0.5-3.2-3.1V9.9z M117.1,25.2c-0.5,2.1-1,3-2.2,3
	c-1,0-1.6-0.4-1.6-2.4v-9.9c0-4.5-2.4-6.5-6.2-6.5c-3.9,0-8.1,3.1-8.1,6.3c0,1.6,0.9,2.7,2.3,2.7c1.2,0,2.1-0.8,2.1-2
	c0-1.6-1.5-2-1.9-3.7c1.3-0.9,3.2-1.6,4.9-1.6c3,0,4.7,1.5,4.7,5.2v2.2l-5.4,1.8c-3.5,1.2-5.8,2.7-5.8,5.6c0,2.8,2,4.5,5,4.5
	c2.6,0,4.7-1.5,6.2-4.6v0.3c0,2.8,1.3,4.1,3.2,4.1c2.4,0,3.2-1.8,3.7-4.7L117.1,25.2z M105.6,28.5c-2.1,0-3.2-1-3.2-2.9
	c0-2.2,1.7-3.2,4.3-4.1l4.5-1.6V24C109.7,27,107.5,28.5,105.6,28.5z M125.1,26.3V0h-0.8l-4.7,1.3v0.8c2.9,0,3.3,0.3,3.3,2.4v21.8
	c0,2.2-0.9,2.3-3.4,2.5v1h9.1v-1C125.4,28.6,125.1,28.5,125.1,26.3z"/>
<path d="M184.6,72.9c-0.9-0.3-2-0.5-3.1-0.5c-4.5,0-7.5,2.7-7.5,6.8c0,2.3,1,4.2,2.6,5.4c-2.2,1.2-3.4,2.5-3.4,4.3
	c0,1.6,0.9,2.8,2.4,3.4c-2,1.1-3.1,2.4-3.1,4.1c0,3.2,3.6,5.5,9.4,5.5c6.1,0,10.3-2.4,10.3-6.8c0-2.8-1.7-4.5-5.5-4.5h-7.9
	c-2.4,0-3.7-0.8-3.7-2.3c0-1,0.7-2.2,2.5-3.2c1.1,0.5,2.4,0.8,3.9,0.8c4.5,0,7.5-2.7,7.5-6.8c0-1.6-0.5-3.1-1.3-4.2h4.7v-2.1H184.6z
	 M181.6,84.6c-3.4,0-5.2-2.6-5.2-5.8c0-3.5,2.3-5.1,4.9-5.1c3.4,0,5.2,2.6,5.2,5.8C186.5,83,184.3,84.6,181.6,84.6z M185.9,92.8
	c2.8,0,4.2,1.2,4.2,3.2c0,2.9-3.2,4.6-8.1,4.6c-4.5,0-7.1-1.6-7.1-4.5c0-1.3,0.4-2.3,1.6-3.5c0.5,0.1,1,0.2,1.6,0.2H185.9z
	 M213.1,88.2c-0.5,2.1-1,3-2.2,3c-1,0-1.6-0.4-1.6-2.4v-9.9c0-4.5-2.4-6.5-6.2-6.5c-3.9,0-8.1,3.1-8.1,6.3c0,1.6,0.9,2.7,2.3,2.7
	c1.2,0,2.1-0.8,2.1-2c0-1.6-1.5-2-1.9-3.7c1.3-0.9,3.2-1.6,4.9-1.6c3,0,4.7,1.5,4.7,5.2v2.2l-5.4,1.8c-3.5,1.2-5.8,2.7-5.8,5.6
	c0,2.8,2,4.5,5,4.5c2.6,0,4.7-1.5,6.2-4.6v0.3c0,2.8,1.3,4.1,3.2,4.1c2.4,0,3.1-1.8,3.7-4.7L213.1,88.2z M201.6,91.5
	c-2.1,0-3.2-1-3.2-2.9c0-2.2,1.7-3.2,4.3-4.1l4.5-1.6V87C205.6,90,203.5,91.5,201.6,91.5z M230.4,85.9c-0.6,4.2-1,4.7-4.5,4.7H218
	l12.7-15.5v-2.2h-15v6.3h1.3c0.4-3.7,0.8-4.1,5.1-4.1h6.7l-12.6,15.5v2.2h15.3l0.3-6.9H230.4z M238.9,68.2c1.2,0,2.1-0.9,2.1-2.2
	c0-1.3-0.9-2.2-2.1-2.2c-1.2,0-2.1,0.9-2.1,2.2C236.8,67.3,237.7,68.2,238.9,68.2z M243.7,92.8v-1c-2.9-0.2-3.5-0.4-3.5-3.1v-16
	h-0.8l-4.8,1.1v0.8c3,0,3.5,0.3,3.5,2.6v11.6c0,2.7-0.8,3-3.4,3.1v1H243.7z M263.9,79.5c0-4.4-2.4-7.1-6.3-7.1c-2.7,0-4.7,1.3-6.4,4
	v-3.8h-0.8l-4.7,1.1v0.8c2.9,0,3.3,0.3,3.3,2.6V89c0,2.2-0.5,2.6-3.3,2.9v1h8.8v-1c-3.1-0.2-3.3-0.3-3.3-2.9V78
	c1.8-2.4,3.6-3.5,5.8-3.5c3,0,4.7,2.1,4.7,5.7V89c0,2.4-0.3,2.6-3.5,2.9v1h8.7v-1c-2.8-0.3-3.1-0.5-3.1-2.9V79.5z M281.2,72.9
	c-0.9-0.3-2-0.5-3.1-0.5c-4.5,0-7.5,2.7-7.5,6.8c0,2.3,1,4.2,2.6,5.4c-2.2,1.2-3.4,2.5-3.4,4.3c0,1.6,0.9,2.8,2.4,3.4
	c-2,1.1-3.1,2.4-3.1,4.1c0,3.2,3.6,5.5,9.4,5.5c6.1,0,10.3-2.4,10.3-6.8c0-2.8-1.7-4.5-5.5-4.5h-7.9c-2.4,0-3.7-0.8-3.7-2.3
	c0-1,0.7-2.2,2.5-3.2c1.1,0.5,2.4,0.8,3.9,0.8c4.5,0,7.5-2.7,7.5-6.8c0-1.6-0.5-3.1-1.3-4.2h4.7v-2.1H281.2z M278.2,84.6
	c-3.4,0-5.2-2.6-5.2-5.8c0-3.5,2.3-5.1,4.9-5.1c3.4,0,5.2,2.6,5.2,5.8C283.1,83,280.9,84.6,278.2,84.6z M282.6,92.8
	c2.8,0,4.2,1.2,4.2,3.2c0,2.9-3.2,4.6-8.1,4.6c-4.5,0-7.1-1.6-7.1-4.5c0-1.3,0.4-2.3,1.6-3.5c0.5,0.1,1,0.2,1.6,0.2H282.6z"/>
<path d="M16.4,85.4l0.2-0.9h-4.8l1-4.6h-0.9l-1,4.6H2.4c3.1-3,7.6-8.2,10.8-13.3l-0.9-0.2C9.7,75.4,4.8,81.3,1.2,84.6L1,85.4h9.1
	l0.4,0.5l-0.8,3.9h0.9l0.8-3.9l0.6-0.5H16.4z M24.2,88.4c0,0.9,0.7,1.7,1.7,1.7c0.9,0,1.6-0.8,1.6-1.7s-0.7-1.7-1.6-1.7
	C24.9,86.8,24.2,87.5,24.2,88.4z"/>
</svg>
