<?xml version="1.0" encoding="utf-8"?>
<!-- Generator: Adobe Illustrator 25.1.0, SVG Export Plug-In . SVG Version: 6.00 Build 0)  -->
<svg version="1.1" id="Layer_1" xmlns="http://www.w3.org/2000/svg" xmlns:xlink="http://www.w3.org/1999/xlink" x="0px" y="0px"
	 viewBox="0 0 287.9 93.4" style="enable-background:new 0 0 287.9 93.4;" xml:space="preserve">
<path d="M21.8,0.9h-2.2L20,3.6L5.5,24.2c-2.9,4.1-3.5,4.5-5.2,4.6L0,29.8h8.8l0.4-1.1c-2.1,0-3.3-0.3-3.3-1.4c0-0.6,0.4-1.4,1.2-2.6
	l3.4-4.9h11.4l0.5,4.5c0.4,3.9-1,4.2-4.2,4.3l-0.3,1.1h9.1l0.3-1.1c-1.6-0.1-2.2-0.5-2.7-4.8L21.8,0.9z M20.2,5.7l1.4,12.9H11.3
	L20.2,5.7z M36.5,30.4c6,0,13.5-9.2,13.5-16.3c0-3.6-1.9-4.7-3.9-4.7c-3.7,0-6.7,4.4-10.9,12.3h-0.5c1.6-3.2,3.1-6.8,4.2-10.1
	L42.8,0H42l-5.9,1.1L36,1.8l1.6,0.1c1.7,0.1,2,1,1.4,3.1l-7.7,22.8C32,29.1,33.7,30.4,36.5,30.4z M36.6,29.3c-1.4,0-2.5-0.5-3.2-1.8
	c1.9-5,7.8-16,12.2-16c1.1,0,2.1,0.5,2.1,2.9C47.6,19.9,42.1,29.3,36.6,29.3z M58.2,30.4c2.6,0,5.4-1.8,7.4-4.5
	c2.1-2.9,3.6-6.7,3.6-10.1c0-4.2-1.9-6.4-5.7-6.4c-2.6,0-5.4,1.7-7.4,4.5c-2.1,2.9-3.6,6.7-3.6,10.1C52.5,28.2,54.5,30.4,58.2,30.4z
	 M58,29.2c-1.6,0-3.2-1-3.2-3.8c0-2.2,1-6,2.6-9.2c1.6-3.1,3.8-5.6,6.3-5.6c1.7,0,3.2,1.1,3.2,3.8c0,2.1-1,6-2.6,9.1
	C62.8,26.7,60.6,29.2,58,29.2z M76.7,30.4c3.2,0,6.4-4.3,10.4-12.3h0.5c-3.2,7.6-3.5,8.5-3.5,10c0,1.5,1.2,2.2,2.2,2.2
	c2.5,0,4.2-2.8,5.5-5.7l-0.8-0.3c-1.8,3-3,3.7-3.7,3.7c-0.7,0-0.9-0.3-0.9-0.8c0-0.6,0.2-1.5,0.5-2.7l4.4-14.6h-2
	c-2.9,8.2-8.1,18.2-12.4,18.2c-1,0-2-0.3-2-1.8c0-0.7,0.3-1.7,1.1-3.4l3.6-7.9c0.5-1.1,1-2.4,1-3.4c0-1.8-1.3-2.2-2.4-2.2
	c-2.5,0-4.2,2.8-5.5,5.7l0.8,0.2c1.8-3,3-3.8,3.9-3.8c0.6,0,0.8,0.3,0.8,0.9c0,0.7-0.3,1.6-0.8,2.9l-3.2,6.8
	c-1.2,2.5-1.5,3.8-1.5,4.9C72.9,29.4,74.6,30.4,76.7,30.4z M108.7,12l0.3-1.3h-5l1.9-4.3l-2.5,0.3l-1.4,4.1h-4.3L97.2,12h4.3
	l-5.4,13.5c-0.3,0.8-0.5,1.6-0.5,2.2c0,1.9,1.2,2.5,2.4,2.5c2.8,0,5-3.1,6.6-6.2l-0.9-0.2c-2.7,3.9-3.9,4.2-4.8,4.2
	c-0.6,0-0.9-0.4-0.9-1c0-0.4,0.1-0.9,0.3-1.4l5-13.6H108.7z M132.3,12l0.3-1.3h-5l1.9-4.3L127,6.6l-1.4,4.1h-4.3l-0.4,1.3h4.3
	l-5.4,13.5c-0.3,0.8-0.5,1.6-0.5,2.2c0,1.9,1.2,2.5,2.4,2.5c2.8,0,5-3.1,6.6-6.2l-0.9-0.2c-2.7,3.9-3.9,4.2-4.8,4.2
	c-0.6,0-0.9-0.4-0.9-1c0-0.4,0.1-0.9,0.3-1.4l5-13.6H132.3z M141.4,30.4c5.6,0,10.4-10,10.4-15.8c0-3.5-1.7-5.2-4.6-5.2
	c-3.6,0-6.6,4.4-10.7,12.3H136c1.6-3.2,3.2-6.8,4.3-10.1L144.1,0h-0.7l-5.9,1.1l-0.2,0.7l1.6,0.1c1.7,0.1,2,1,1.4,3.1l-8.4,24.8h2.1
	c4.9-12.7,9.3-18.3,12.7-18.3c2.3,0,2.8,1.6,2.8,4.2c0,5.2-3.9,12.7-7.4,13.7c-0.7-1,0.9-4.1-1.6-4.1c-1.5,0-2.1,1.3-2.1,2.5
	C138.4,29.3,139.5,30.4,141.4,30.4z M170,12.6c0-2.2-1.6-3.2-3.9-3.2c-6.1,0-11.6,8.9-11.6,15.4c0,3.9,2.2,5.6,5.2,5.6
	c4,0,5.8-3,7.3-6.3l-1-0.3c-1.3,2.7-3.4,4.3-5.6,4.3c-2.1,0-3.8-1.2-3.8-4.2c0-1.2,0.2-2.4,0.6-3.7C165.6,19.9,170,16.3,170,12.6z
	 M165.7,10.5c1.3,0,2,0.8,2,1.9c0,2.8-3.5,6.2-10.2,6.7C159.1,14.7,162.6,10.5,165.7,10.5z"/>
<path d="M184.4,93.2c2.4,0,4.1-2.8,5.4-5.8l-0.8-0.2c-1.8,3.1-2.9,3.9-3.8,3.9c-0.5,0-0.8-0.3-0.8-1c0-0.7,0.2-1.6,1.1-3.4l3.7-8
	c0.7-1.6,1.1-2.9,1.1-3.8c0-1.7-1.1-2.5-2.8-2.5c-3,0-5.8,4.1-9.9,12.3h-0.5c2.6-6.5,3.3-8.4,3.3-9.7c0-1.8-1.1-2.5-2.6-2.5
	c-3.4,0-5.5,4.1-9.4,12.3h-0.5c2.3-5.9,3.4-8.7,3.4-10c0-1.8-1.1-2.2-2.1-2.2c-2.5,0-4.2,2.8-5.5,5.7l0.8,0.2c1.8-3,3.1-3.8,3.9-3.8
	c0.6,0,0.8,0.3,0.8,0.8s-0.2,1.2-0.5,2.5l-4.4,15h2c4-11.2,8.1-18.3,11.2-18.3c0.5,0,1.1,0.3,1.1,1.2c0,0.5-0.1,1-0.7,2.8l-4.8,14.3
	h2c3.9-9.9,9-18.3,12-18.3c0.8,0,1.2,0.3,1.2,1.1c0,0.6-0.3,1.5-1,3l-4,9.2c-0.7,1.6-0.9,2.4-0.9,3.1
	C182,92.5,183.2,93.2,184.4,93.2z M208.9,75.6c0-2.2-1.6-3.2-3.9-3.2c-6.1,0-11.6,8.9-11.6,15.4c0,3.9,2.2,5.6,5.2,5.6
	c4,0,5.8-3,7.3-6.3l-1-0.3c-1.3,2.7-3.4,4.3-5.6,4.3c-2.1,0-3.8-1.2-3.8-4.2c0-1.2,0.2-2.4,0.6-3.7
	C204.6,82.9,208.9,79.3,208.9,75.6z M204.6,73.5c1.3,0,2,0.8,2,1.9c0,2.8-3.5,6.2-10.2,6.7C198.1,77.7,201.5,73.5,204.6,73.5z
	 M224.2,75l0.3-1.3h-5l1.9-4.3l-2.5,0.3l-1.4,4.1h-4.3l-0.4,1.3h4.3l-5.4,13.5c-0.3,0.8-0.5,1.6-0.5,2.2c0,1.9,1.2,2.5,2.4,2.5
	c2.8,0,5-3.1,6.6-6.2l-0.9-0.2c-2.7,3.9-3.9,4.2-4.8,4.2c-0.6,0-0.9-0.4-0.9-1c0-0.4,0.1-0.9,0.3-1.4l5-13.6H224.2z M233.3,93.4
	c5.6,0,10.4-10,10.4-15.8c0-3.5-1.7-5.2-4.6-5.2c-3.6,0-6.6,4.4-10.7,12.3h-0.5c1.6-3.2,3.2-6.8,4.3-10.1L236,63h-0.7l-5.9,1.1
	l-0.2,0.7l1.6,0.1c1.7,0.1,2,1,1.4,3.1l-8.4,24.8h2.1c4.9-12.7,9.3-18.3,12.7-18.3c2.3,0,2.8,1.6,2.8,4.2c0,5.2-3.9,12.7-7.4,13.7
	c-0.7-1,0.9-4.1-1.6-4.1c-1.5,0-2.1,1.3-2.1,2.5C230.3,92.3,231.3,93.4,233.3,93.4z M252.2,93.4c2.6,0,5.4-1.8,7.4-4.5
	c2.1-2.9,3.6-6.7,3.6-10.1c0-4.2-1.9-6.4-5.7-6.4c-2.6,0-5.4,1.7-7.4,4.5c-2.1,2.9-3.6,6.7-3.6,10.1
	C246.5,91.2,248.5,93.4,252.2,93.4z M252,92.2c-1.6,0-3.2-1.1-3.2-3.8c0-2.2,1-6,2.6-9.2c1.6-3.1,3.8-5.6,6.3-5.6
	c1.7,0,3.2,1.1,3.2,3.8c0,2.1-1,6-2.6,9.1C256.7,89.7,254.6,92.2,252,92.2z M279.8,91.1c-1.2,0-1-1.3-0.3-3.2l8.4-24.9h-0.5
	l-6.8,1.1l-0.2,0.8l1.8,0.1c2.2,0.1,2.6,1,1.9,3.2l-1.9,5.5c-0.7-0.4-1.6-0.7-2.6-0.7c-5.9,0-13.9,10.4-13.9,16.2
	c0,2.8,1.4,4.3,3.4,4.3c3.7,0,7.4-6,11-12.3h0.5c-2.8,5.6-4,8.5-4,9.9c0,1.6,1.1,2.1,2.1,2.1c2.2,0,4.2-2.8,5.5-5.7l-0.8-0.3
	C281.9,89.7,280.6,91.1,279.8,91.1z M269.8,91.1c-0.7,0-1.9-0.3-1.9-2.5c0-6.2,7.3-14.1,10.2-14.3c1.2,0.1,2.7,0.6,3.6,1.7
	C276.7,85.6,272.7,91.1,269.8,91.1z"/>
<path d="M9,73.3c-4.9,0-8.6,5-8.6,10.6c0,4.2,1.8,7.3,6.1,7.3c4.9,0,8.6-5,8.6-10.6C15.1,76.4,13.3,73.3,9,73.3z M6.4,90.3
	c-3.7,0-5.2-2.7-5.2-6.4c0-4.9,3.1-9.7,7.7-9.7c3.7,0,5.2,2.7,5.2,6.5C14.2,85.6,11.1,90.3,6.4,90.3z M22.7,89.4
	c0,0.9,0.7,1.7,1.7,1.7c0.9,0,1.6-0.8,1.6-1.7s-0.7-1.7-1.6-1.7C23.4,87.8,22.7,88.5,22.7,89.4z"/>
</svg>
