<?xml version="1.0" encoding="utf-8"?>
<!-- Generator: Adobe Illustrator 25.1.0, SVG Export Plug-In . SVG Version: 6.00 Build 0)  -->
<svg version="1.1" id="Layer_1" xmlns="http://www.w3.org/2000/svg" xmlns:xlink="http://www.w3.org/1999/xlink" x="0px" y="0px"
	 viewBox="0 0 288 93.4" style="enable-background:new 0 0 288 93.4;" xml:space="preserve">
<path d="M11.9,29.8c14.9,0,19.3-10,19.3-17.1c0-9.2-7.9-11.5-13.7-11.5H8.9L8.6,2.3c2.2,0,3.5,0.2,3.5,1.9c0,0.4,0,0.8-0.2,1.4
	L6.3,25.1C5.4,28.3,4,28.6,1,28.7l-0.3,1.1H11.9z M12.8,28.6c-2.8,0-4.1-0.9-4.1-3c0-0.6,0.1-1.3,0.4-2.2l6-21h2.8
	c4.6,0,10.4,2.2,10.4,10.1C28.3,20.7,22.6,28.6,12.8,28.6z M36.9,29.8c2.9-8.1,7.6-17.3,10-18.1c0.4,0.5,0.5,1.2,0.8,1.7
	c0.2,0.3,0.5,0.6,1.2,0.6c1.3,0,2.1-1,2.1-2.1c0-1.9-1.3-2.6-2.6-2.6c-1.1,0-2,0.7-2.9,1.8c-1.6,1.9-3.8,5.7-6.1,10.5h-0.5
	c2.8-7,3.4-8.9,3.4-10.1c0-1.8-1.2-2.1-2.2-2.1c-2.5,0-4.2,2.8-5.5,5.7l0.8,0.2c1.8-3,3.1-3.8,3.9-3.8c0.6,0,0.8,0.3,0.8,0.9
	c0,0.5-0.2,1.3-0.6,2.7l-4.4,14.7H36.9z M60.5,5.3c1.3,0,2.2-1,2.2-2.2s-1-2.2-2.2-2.2c-1.3,0-2.2,1-2.2,2.2S59.2,5.3,60.5,5.3z
	 M53.8,30.2c2.6,0,4.3-2.8,5.6-5.8l-0.9-0.3c-1.8,3.1-3.1,3.9-3.9,3.9c-1.1,0-1.1-1.3-0.3-3.3l4-9c0.6-1.4,1.2-3,1.2-4.2
	c0-1.8-1.3-2.2-2.3-2.2c-2.6,0-4.3,2.8-5.6,5.8l0.9,0.3c1.8-3.1,3.1-3.9,3.9-3.9c1.1,0,1.1,1.3,0.3,3.3l-4,9c-0.6,1.4-1.2,3-1.2,4.2
	C51.5,29.8,52.8,30.2,53.8,30.2z M78,30.2c2.4,0,4.1-2.8,5.4-5.8l-0.8-0.2c-1.8,3.1-2.9,3.9-3.8,3.9c-0.5,0-0.8-0.3-0.8-1
	c0-0.7,0.3-1.6,1.1-3.4l2.8-6.6c0.9-2,1.2-3.4,1.2-4.4c0-2.4-1.6-3.3-3.6-3.3c-3.4,0-6.4,3.9-10.5,12.3h-0.5c2.3-5.9,3.3-8.7,3.3-10
	c0-1.8-1.1-2.2-2.1-2.2c-2.5,0-4.2,2.8-5.5,5.7l0.8,0.2c1.8-3,3.1-3.8,3.9-3.8c0.6,0,0.8,0.3,0.8,0.8c0,0.5-0.2,1.3-0.5,2.4
	l-4.5,15.1h2c2.9-8.3,7.9-18.3,12.2-18.3c1.2,0,2.1,0.4,2.1,1.9c0,0.7-0.2,1.6-0.9,3.2l-3.7,8.8c-0.4,1-0.6,1.8-0.6,2.4
	C75.6,29.5,76.8,30.2,78,30.2z M102.8,25.4c-0.8,0-1.3,0.5-1.5,1c-0.3,0.8-0.4,1.8-1.1,3c-1.6-0.4-5-4.7-6.3-9.2
	c7.9-0.3,11.4-3.1,11.4-7c0-2.9-2.2-3.9-4.2-3.9c-4.3,0-7,4.3-11.3,12.3h-0.5c1.6-3.3,3.2-6.8,4.3-10.1L97.5,0h-0.7l-5.9,1.1
	l-0.2,0.7l1.6,0.1C94,2,94.4,2.9,93.7,5l-8.4,24.8h2.1c1.5-3.9,2.9-7.2,4.3-9.8c1.8,6.2,5.9,10.1,8.7,10.1c1.8,0,3.9-1.1,3.9-3.1
	C104.3,26.1,103.9,25.4,102.8,25.4z M100.6,11.2c1.6,0,2.5,0.9,2.5,2.6c0,3.7-3.9,5.7-11.2,5.9C95.2,13.7,98.1,11.2,100.6,11.2z
	 M118.1,5.3c1.3,0,2.2-1,2.2-2.2s-1-2.2-2.2-2.2s-2.2,1-2.2,2.2S116.8,5.3,118.1,5.3z M111.4,30.2c2.6,0,4.3-2.8,5.6-5.8l-0.9-0.3
	c-1.8,3.1-3.1,3.9-3.9,3.9c-1.1,0-1.1-1.3-0.3-3.3l4-9c0.6-1.4,1.2-3,1.2-4.2c0-1.8-1.3-2.2-2.3-2.2c-2.6,0-4.3,2.8-5.6,5.8l0.9,0.3
	c1.8-3.1,3.1-3.9,3.9-3.9c1.1,0,1.1,1.3,0.3,3.3l-4,9c-0.6,1.4-1.2,3-1.2,4.2C109.1,29.8,110.4,30.2,111.4,30.2z M135.6,30.2
	c2.4,0,4.1-2.8,5.4-5.8l-0.8-0.2c-1.8,3.1-2.9,3.9-3.8,3.9c-0.5,0-0.8-0.3-0.8-1c0-0.7,0.3-1.6,1.1-3.4l2.8-6.6
	c0.9-2,1.2-3.4,1.2-4.4c0-2.4-1.6-3.3-3.6-3.3c-3.4,0-6.4,3.9-10.5,12.3h-0.5c2.3-5.9,3.3-8.7,3.3-10c0-1.8-1.1-2.2-2.1-2.2
	c-2.5,0-4.2,2.8-5.5,5.7l0.8,0.2c1.8-3,3.1-3.8,3.9-3.8c0.6,0,0.8,0.3,0.8,0.8c0,0.5-0.2,1.3-0.5,2.4l-4.5,15.1h2
	c2.9-8.3,7.9-18.3,12.2-18.3c1.2,0,2.1,0.4,2.1,1.9c0,0.7-0.2,1.6-0.9,3.2l-3.7,8.8c-0.4,1-0.6,1.8-0.6,2.4
	C133.2,29.5,134.4,30.2,135.6,30.2z M156.8,10.7c-0.8-0.8-2-1.3-3.4-1.3c-2,0-3.4,0.8-4.6,2.2c-1.6,1.8-2.7,4.5-2.7,6.9
	c0,2.2,0.9,3.7,2.4,4.4c-1.5,0.6-2.4,1.5-2.4,2.7c0,0.9,0.5,1.8,2.4,2.9c-6.5,0.6-8.2,2.7-8.2,5c0,3.2,4.5,5.4,9.9,5.4
	c5.2,0,7.8-1.9,7.8-4.7c0-1.8-0.9-3.3-4.7-5.4l-1.8-1c-2.9-1.6-3.3-2.1-3.3-2.8c0-0.7,0.2-1.1,1.2-1.8c0.5,0.1,1,0.2,1.6,0.2
	c2,0,3.4-0.8,4.6-2.2c1.6-1.8,2.7-4.5,2.7-6.9c0-0.9-0.1-1.6-0.4-2.3h4.2l0.4-1.3H156.8z M153.7,20.1c-0.9,1.2-2,2.1-3.4,2.1
	c-1.1,0-2.3-0.6-2.3-2.6c0-1.8,0.9-4.9,2.5-7c0.9-1.2,2-2.1,3.4-2.1c1.1,0,2.3,0.6,2.3,2.6C156.2,15,155.3,18,153.7,20.1z
	 M151.4,30.2c3.4,1.8,4.2,3,4.2,4.3c0,1.8-1.7,3.4-5.5,3.4c-3.4,0-7.6-1.4-7.6-4.4c0-2.1,2-3.5,6.7-4.5l0.3,0.1L151.4,30.2z"/>
<path d="M3.1,76.7l0.4,0.7l6.4-3.9L6.7,88.5L6.1,89H0.2L0,89.8h13.5l0.2-0.8H8l-0.4-0.5L11,72.7H9.7L3.1,76.7z M23.1,88.4
	c0,0.9,0.7,1.7,1.7,1.7c0.9,0,1.6-0.8,1.6-1.7s-0.7-1.7-1.6-1.7C23.8,86.8,23.1,87.5,23.1,88.4z"/>
<path d="M214.7,72.4c-1.2,0-1.9,0.7-1.9,1.9c0,1.9,1.8,2.3,2.7,4.1c-0.5,5.7-3.1,13.1-7.6,13.1c-1.4,0-2.4-0.5-3-1.2
	c3.6-3.8,5.4-10.3,5.4-14.5c0-2.4-1.2-3.4-2.5-3.4c-3.8,0-6.3,7.3-6.3,12.9c0,1.8,0.3,3.5,0.8,4.7c-1.1,0.8-2.3,1.2-3.5,1.2
	c-2.3,0-4-1.3-4-3.7c0-3.8,2.7-7.6,8-14.7h-1.8l-1.6,2.4c-2.1-2.1-4.2-2.9-5.8-2.9c-3.6,0-5.6,3.7-5.6,6.1c0,1.9,1.3,3,2.9,3
	c1.6,0,2.4-1.1,2.4-2.6c0-1.1-0.4-1.3-1.1-1.3c-1.2,0-1.9,0.6-3,0.3c0.5-2.1,1.8-3.4,3.5-3.4c1.6,0,3.7,0.9,5.9,3.3
	c-3.7,3.3-6.1,6.3-6.1,10.1c0,3.3,2.4,5.4,5.8,5.4c1.9,0,3.6-0.6,5-1.7c0.9,1.1,2.3,1.7,4,1.7c6,0,9.5-9.3,9.5-16.8
	C216.8,73,215.9,72.4,214.7,72.4z M207.5,74.8c0.7,0,1.3,0.7,1.3,1.9c0,3.7-1.9,8.9-4.9,12c-0.5-1.2-0.5-2.6-0.5-3.8
	C203.4,79.4,205.6,74.8,207.5,74.8z M232.6,91.1c-1.2,0-1-1.3-0.3-3.2l5.4-15.8h-2.2l-0.5,1.6c-0.7-0.5-1.6-0.7-2.6-0.7
	c-5.9,0-13.9,10.4-13.9,16.2c0,2.8,1.4,4.3,3.4,4.3c3.5,0,7.1-5.7,11-12.3h0.5c-2.7,5.5-4,8.5-4,10c0,1.6,1.1,2.1,2.1,2.1
	c2.2,0,4.1-2.8,5.5-5.7l-0.8-0.3C234.9,89.7,233.4,91.1,232.6,91.1z M222.7,91.1c-0.7,0-1.9-0.3-1.9-2.5c0-6.2,7.3-14.1,10.2-14.3
	c1.2,0.1,2.7,0.6,3.6,1.7C229.6,85.6,225.6,91.1,222.7,91.1z M253.6,75l0.3-1.3h-5l1.9-4.3l-2.5,0.3l-1.4,4.1h-4.3l-0.4,1.3h4.3
	l-5.4,13.5c-0.3,0.8-0.5,1.6-0.5,2.2c0,1.9,1.2,2.5,2.4,2.5c2.8,0,5-3.1,6.6-6.2l-0.9-0.2c-2.7,3.9-3.9,4.2-4.8,4.2
	c-0.6,0-0.9-0.4-0.9-1c0-0.4,0.1-0.9,0.3-1.4l5-13.6H253.6z M269.2,75.6c0-2.2-1.6-3.2-3.9-3.2c-6.1,0-11.6,8.9-11.6,15.4
	c0,3.9,2.2,5.6,5.2,5.6c4,0,5.8-3,7.3-6.3l-1-0.3c-1.3,2.7-3.4,4.3-5.6,4.3c-2.1,0-3.8-1.2-3.8-4.2c0-1.2,0.2-2.4,0.6-3.7
	C264.9,82.9,269.2,79.3,269.2,75.6z M265,73.5c1.3,0,2,0.8,2,1.9c0,2.8-3.5,6.2-10.2,6.7C258.4,77.7,261.8,73.5,265,73.5z M274,92.8
	c2.9-8.1,7.6-17.3,10-18.1c0.4,0.5,0.5,1.2,0.8,1.7c0.2,0.3,0.5,0.6,1.2,0.6c1.3,0,2.1-1,2.1-2.1c0-1.9-1.3-2.6-2.6-2.6
	c-1.1,0-2,0.7-2.9,1.8c-1.6,1.9-3.8,5.7-6.1,10.5h-0.5c2.8-7,3.4-8.9,3.4-10.1c0-1.8-1.2-2.1-2.2-2.1c-2.5,0-4.2,2.8-5.5,5.7
	l0.8,0.2c1.8-3,3.1-3.8,3.9-3.8c0.6,0,0.8,0.3,0.8,0.9c0,0.5-0.2,1.3-0.6,2.7L272,92.8H274z"/>
</svg>
