<?xml version="1.0" encoding="utf-8"?>
<!-- Generator: Adobe Illustrator 25.1.0, SVG Export Plug-In . SVG Version: 6.00 Build 0)  -->
<svg version="1.1" id="Layer_1" xmlns="http://www.w3.org/2000/svg" xmlns:xlink="http://www.w3.org/1999/xlink" x="0px" y="0px"
	 viewBox="0 0 288.3 110" style="enable-background:new 0 0 288.3 110;" xml:space="preserve">
<path d="M4.1,11.9c1.7-2,3.9-3.6,6.4-3.6c2.3,0,3.5,1,3.5,3c0,2.4-2.1,4.3-5.2,6.6L0.6,24l-0.2,1h12.5l1-4.9h-0.8l-0.8,3.5l-0.6,0.5
	H1.8l7.6-5.6c2.9-2.1,5.6-4.5,5.6-7.3c0-2.3-1.6-3.8-4.4-3.8c-2.8,0-5.3,1.8-7.1,3.9L4.1,11.9z M24,23.6c0,0.9,0.7,1.7,1.7,1.7
	c0.9,0,1.6-0.8,1.6-1.7c0-0.9-0.7-1.7-1.6-1.7C24.7,21.9,24,22.6,24,23.6z"/>
<path d="M12.6,101.5c3.2,0,6.2-0.9,8.6-2.2l2.4-8.4h-1.3c-2.9,7-5.9,9.2-9.8,9.2c-4.8,0-9.6-2.8-9.6-10.7c0-7.5,4.1-16.2,13.8-16.2
	c4.2,0,7.5,1.4,7.5,6.2c0,0.6,0,1.2-0.1,1.9h1.3l2.6-9.1h-1.3c-0.4,0.8-0.8,1.3-1.3,1.3c-0.9,0-2.9-1.7-8.7-1.7
	C6,71.8,0,80.1,0,89.3C0,97.6,5.7,101.5,12.6,101.5z M33.4,101.5c2.6,0,5.4-1.8,7.4-4.5c2.1-2.9,3.6-6.7,3.6-10.1
	c0-4.2-1.9-6.4-5.7-6.4c-2.6,0-5.4,1.7-7.4,4.5c-2.1,2.9-3.6,6.7-3.6,10.1C27.7,99.3,29.7,101.5,33.4,101.5z M33.2,100.3
	c-1.6,0-3.2-1.1-3.2-3.8c0-2.2,1-6,2.6-9.2c1.6-3.1,3.8-5.6,6.3-5.6c1.7,0,3.2,1.1,3.2,3.8c0,2.1-1,6-2.6,9.1
	C38,97.8,35.8,100.3,33.2,100.3z M51.9,101.5c3.2,0,6.4-4.3,10.4-12.3h0.5c-3.2,7.6-3.5,8.5-3.5,10c0,1.5,1.2,2.2,2.2,2.2
	c2.5,0,4.2-2.8,5.5-5.7l-0.8-0.3c-1.8,3-3,3.7-3.7,3.7c-0.7,0-0.9-0.3-0.9-0.8c0-0.6,0.2-1.5,0.5-2.7L66.7,81h-2
	c-2.9,8.2-8.1,18.2-12.4,18.2c-1,0-2-0.3-2-1.8c0-0.7,0.3-1.7,1.1-3.4l3.6-7.9c0.5-1.1,1-2.4,1-3.4c0-1.8-1.3-2.2-2.4-2.2
	c-2.5,0-4.2,2.8-5.5,5.7l0.8,0.2c1.8-3,3-3.8,3.9-3.8c0.6,0,0.8,0.3,0.8,0.9c0,0.7-0.3,1.6-0.8,2.9l-3.2,6.8
	c-1.2,2.5-1.5,3.8-1.5,4.9C48.1,100.5,49.8,101.5,51.9,101.5z M84.9,101.3c2.4,0,4.1-2.8,5.4-5.8l-0.8-0.2c-1.8,3.1-2.9,3.9-3.8,3.9
	c-0.5,0-0.8-0.3-0.8-1c0-0.7,0.3-1.6,1.1-3.4l2.8-6.6c0.9-2,1.2-3.4,1.2-4.4c0-2.4-1.6-3.3-3.6-3.3c-3.4,0-6.4,3.9-10.5,12.3h-0.5
	c2.3-5.9,3.3-8.7,3.3-10c0-1.8-1.1-2.2-2.1-2.2c-2.5,0-4.2,2.8-5.5,5.7l0.8,0.2c1.8-3,3.1-3.8,3.9-3.8c0.6,0,0.8,0.3,0.8,0.8
	c0,0.5-0.2,1.3-0.5,2.4l-4.5,15.1h2c2.9-8.3,7.9-18.3,12.2-18.3c1.2,0,2.1,0.4,2.1,1.9c0,0.7-0.2,1.6-0.9,3.1l-3.7,8.8
	c-0.4,1-0.6,1.8-0.6,2.4C82.5,100.6,83.7,101.3,84.9,101.3z M107.4,83.1l0.3-1.3h-5l1.9-4.3l-2.5,0.3l-1.4,4.1h-4.3L96,83.1h4.3
	l-5.4,13.5c-0.3,0.8-0.5,1.6-0.5,2.2c0,1.9,1.2,2.5,2.4,2.5c2.8,0,5-3.1,6.6-6.2l-0.9-0.2c-2.7,3.9-3.9,4.2-4.8,4.2
	c-0.6,0-0.9-0.4-0.9-1c0-0.4,0.1-0.9,0.3-1.4l5-13.6H107.4z M118,76.5c1.3,0,2.2-1,2.2-2.2s-1-2.2-2.2-2.2c-1.3,0-2.2,1-2.2,2.2
	S116.7,76.5,118,76.5z M111.3,101.3c2.6,0,4.3-2.8,5.6-5.8l-0.9-0.3c-1.8,3.1-3.1,3.9-3.9,3.9c-1.1,0-1.1-1.3-0.3-3.3l4-9
	c0.6-1.4,1.2-3,1.2-4.2c0-1.8-1.3-2.2-2.3-2.2c-2.6,0-4.3,2.8-5.6,5.8l0.9,0.3c1.8-3.2,3.1-3.9,3.9-3.9c1.1,0,1.1,1.3,0.3,3.3l-4,9
	c-0.6,1.4-1.2,3-1.2,4.2C109,100.9,110.3,101.3,111.3,101.3z M135.9,101.3c2.4,0,4.1-2.8,5.4-5.8l-0.8-0.2c-1.8,3.1-2.9,3.9-3.8,3.9
	c-0.5,0-0.8-0.3-0.8-1c0-0.7,0.3-1.6,1.1-3.4l2.8-6.6c0.9-2,1.2-3.4,1.2-4.4c0-2.4-1.6-3.3-3.6-3.3c-3.4,0-6.4,3.9-10.5,12.3h-0.5
	c2.3-5.9,3.3-8.7,3.3-10c0-1.8-1.1-2.2-2.1-2.2c-2.5,0-4.2,2.8-5.5,5.7l0.8,0.2c1.8-3,3.1-3.8,3.9-3.8c0.6,0,0.8,0.3,0.8,0.8
	c0,0.5-0.2,1.3-0.5,2.4l-4.5,15.1h2c2.9-8.3,7.9-18.3,12.2-18.3c1.2,0,2.1,0.4,2.1,1.9c0,0.7-0.2,1.6-0.9,3.1l-3.7,8.8
	c-0.4,1-0.6,1.8-0.6,2.4C133.5,100.6,134.7,101.3,135.9,101.3z M157.6,81.8c-0.8-0.8-2-1.3-3.4-1.3c-2,0-3.4,0.8-4.6,2.2
	c-1.6,1.8-2.7,4.5-2.7,6.9c0,2.2,0.9,3.7,2.4,4.4c-1.5,0.6-2.4,1.5-2.4,2.7c0,0.9,0.5,1.8,2.4,2.9c-6.5,0.6-8.2,2.7-8.2,5
	c0,3.2,4.5,5.4,9.9,5.4c5.2,0,7.8-1.9,7.8-4.7c0-1.8-0.9-3.3-4.7-5.4l-1.8-1c-2.9-1.6-3.3-2.1-3.3-2.8c0-0.7,0.2-1.1,1.2-1.8
	c0.5,0.1,1,0.2,1.6,0.2c2,0,3.4-0.8,4.6-2.2c1.6-1.8,2.7-4.5,2.7-6.9c0-0.9-0.1-1.6-0.4-2.3h4.2l0.4-1.3H157.6z M154.5,91.2
	c-0.9,1.2-2,2.1-3.4,2.1c-1.1,0-2.3-0.6-2.3-2.6c0-1.8,0.9-4.9,2.5-7c0.9-1.2,2-2.1,3.4-2.1c1.1,0,2.3,0.6,2.3,2.6
	C156.9,86.1,156,89.1,154.5,91.2z M152.2,101.3c3.4,1.8,4.2,3,4.2,4.3c0,1.8-1.7,3.4-5.5,3.4c-3.4,0-7.6-1.4-7.6-4.4
	c0-2.1,2-3.5,6.7-4.5l0.3,0.1L152.2,101.3z"/>
<path d="M230.2,28.9c2.9-8.1,7.6-17.3,10-18.1c0.4,0.5,0.5,1.2,0.8,1.7c0.2,0.3,0.5,0.6,1.2,0.6c1.3,0,2.1-1,2.1-2.1
	c0-1.9-1.3-2.6-2.6-2.6c-1.1,0-2,0.7-2.9,1.8c-1.6,1.9-3.8,5.7-6.1,10.5H232c2.8-7,3.4-8.9,3.4-10.1c0-1.8-1.2-2.1-2.2-2.1
	c-2.5,0-4.2,2.8-5.5,5.7l0.8,0.2c1.8-3,3.1-3.8,3.9-3.8c0.6,0,0.8,0.3,0.8,0.9c0,0.5-0.2,1.3-0.6,2.7l-4.4,14.7H230.2z M253.8,4.5
	c1.3,0,2.2-1,2.2-2.2S255,0,253.8,0c-1.3,0-2.2,1-2.2,2.2S252.5,4.5,253.8,4.5z M247.2,29.3c2.6,0,4.3-2.8,5.6-5.8l-0.9-0.3
	c-1.8,3.1-3.1,3.9-3.9,3.9c-1.1,0-1.1-1.3-0.3-3.3l4-9c0.6-1.4,1.2-3,1.2-4.2c0-1.8-1.3-2.2-2.3-2.2c-2.6,0-4.3,2.8-5.6,5.8l0.9,0.3
	c1.8-3.1,3.1-3.9,3.9-3.9c1.1,0,1.1,1.3,0.3,3.3l-4,9c-0.6,1.4-1.2,3-1.2,4.2C244.8,28.9,246.1,29.3,247.2,29.3z M261.6,29.5
	c4.4,0,6.1-3.8,7.3-6.3l-0.9-0.3c-1.4,2.6-3.4,4.3-5.7,4.3c-2.1,0-3.8-1.2-3.8-4.2c0-5.5,4.4-13.2,9.3-13.4c0.4,1,0.3,2.1,0.4,2.9
	c0.2,1,0.6,1.7,1.8,1.7c1.3,0,2-0.9,2-2.4c0-1.8-1.4-3.2-4.3-3.2c-5.8,0-11.4,8.9-11.4,15.5C256.3,27.9,258.6,29.5,261.6,29.5z
	 M288.3,11.7c0-2.2-1.6-3.2-3.9-3.2c-6.1,0-11.6,8.9-11.6,15.4c0,3.9,2.2,5.6,5.2,5.6c4,0,5.8-3,7.3-6.3l-1-0.3
	c-1.3,2.7-3.4,4.3-5.6,4.3c-2.1,0-3.8-1.2-3.8-4.2c0-1.2,0.2-2.4,0.6-3.7C284,19,288.3,15.4,288.3,11.7z M284,9.6c1.3,0,2,0.8,2,1.9
	c0,2.8-3.5,6.2-10.2,6.7C277.5,13.8,280.9,9.6,284,9.6z"/>
</svg>
