<?xml version="1.0" encoding="utf-8"?>
<!-- Generator: Adobe Illustrator 25.1.0, SVG Export Plug-In . SVG Version: 6.00 Build 0)  -->
<svg version="1.1" id="Layer_1" xmlns="http://www.w3.org/2000/svg" xmlns:xlink="http://www.w3.org/1999/xlink" x="0px" y="0px"
	 viewBox="0 0 289 101.9" style="enable-background:new 0 0 289 101.9;" xml:space="preserve">
<path d="M5.1,80.6l0.5,0.7c1.1-0.6,2.4-0.8,3.7-0.8c2.6,0,3.5,1.5,3.5,3c0,5-5.8,7.4-12.5,8.5l0,0.9c6.4-0.9,13.4-3.6,13.4-9.3
	c0-2.2-1.4-3.9-4.4-3.9c-0.7,0-1.7,0.2-2.4,0.4l8.4-6.3l0.2-1.1H4.4l-0.2,0.9h10L5.1,80.6z M23.8,88.4c0,0.9,0.7,1.7,1.7,1.7
	c0.9,0,1.6-0.8,1.6-1.7s-0.7-1.7-1.6-1.7C24.5,86.8,23.8,87.5,23.8,88.4z"/>
<path d="M9.6,30.4c5.9,0,8.4-3.5,8.4-7.2c0-3-1.4-5.2-3.6-7.1l-3.4-2.9c-1.8-1.5-3.5-3.3-3.5-6c0-2.8,1.9-5.1,6-5.1
	c3.6,0,6.8,1.9,5.8,8.1h1.3L23.2,1h-1.3c-0.4,0.8-0.8,1.3-1.3,1.3c-0.9,0-3-1.7-7-1.7c-5.9,0-8.4,3.5-8.4,7.2c0,3,1.6,5,3.8,7
	l3.4,2.9c1.8,1.5,3.4,3.5,3.4,6.1c0,2.8-1.9,5.1-6,5.1c-3.9,0-6.7-2.2-5.5-9.2H2.9L0,30h1.3c0.4-0.8,0.8-1.3,1.3-1.3
	C3.4,28.7,5.5,30.4,9.6,30.4z M25.6,30.2c2,0,4-1.6,6.5-7l-0.9-0.3c-2.3,4.2-3.7,5.2-4.8,5.2c-0.5,0-0.8-0.3-0.8-1
	c0-0.4,0.1-1,0.7-2.7L34.5,0h-0.7l-5.9,1.1l-0.2,0.7l1.6,0.1C31,2,31.4,2.9,30.7,5l-6.6,19.4c-0.6,1.8-0.9,2.7-0.9,3.5
	C23.2,29.4,24.2,30.2,25.6,30.2z M40.9,30.4c2.6,0,5.4-1.8,7.4-4.5c2.1-2.9,3.6-6.7,3.6-10.1c0-4.2-1.9-6.4-5.7-6.4
	c-2.6,0-5.4,1.7-7.4,4.5c-2.1,2.9-3.6,6.7-3.6,10.1C35.2,28.2,37.1,30.4,40.9,30.4z M40.7,29.2c-1.6,0-3.2-1-3.2-3.8
	c0-2.2,1-6,2.6-9.2c1.6-3.1,3.8-5.6,6.3-5.6c1.7,0,3.2,1.1,3.2,3.8c0,2.1-1,6-2.6,9.1C45.4,26.7,43.2,29.2,40.7,29.2z M82.4,9.4
	c-1.2,0-1.9,0.7-1.9,1.9c0,1.9,1.8,2.3,2.7,4.1c-0.5,5.7-3.1,13.1-7.6,13.1c-1.4,0-2.4-0.5-3-1.2C76.1,23.4,78,17,78,12.8
	c0-2.4-1.2-3.4-2.5-3.4c-3.8,0-6.3,7.3-6.3,12.9c0,1.8,0.3,3.5,0.8,4.7c-1.1,0.8-2.3,1.2-3.5,1.2c-2.3,0-4-1.3-4-3.7
	c0-3.8,2.7-7.6,8-14.7h-1.8L67,12.3c-2.1-2.1-4.2-2.9-5.8-2.9c-3.6,0-5.6,3.7-5.6,6.1c0,1.9,1.3,3,2.9,3s2.4-1,2.4-2.6
	c0-1-0.4-1.3-1.1-1.3c-1.2,0-1.9,0.6-3,0.3c0.5-2.1,1.8-3.4,3.5-3.4c1.6,0,3.7,0.9,5.9,3.3c-3.7,3.3-6.1,6.3-6.1,10.1
	c0,3.3,2.4,5.4,5.8,5.4c1.9,0,3.6-0.6,5-1.7c0.9,1.1,2.3,1.7,4,1.7c6,0,9.5-9.3,9.5-16.8C84.5,10,83.6,9.4,82.4,9.4z M75.3,11.8
	c0.7,0,1.3,0.7,1.3,1.9c0,3.7-1.9,8.9-4.9,12c-0.5-1.2-0.5-2.6-0.5-3.8C71.1,16.4,73.3,11.8,75.3,11.8z M123,30.2
	c2.4,0,4.1-2.8,5.4-5.8l-0.8-0.2c-1.8,3.1-2.9,3.9-3.8,3.9c-0.5,0-0.8-0.3-0.8-1c0-0.7,0.2-1.6,1.1-3.4l3.7-8
	c0.7-1.6,1.1-2.9,1.1-3.8c0-1.7-1.1-2.5-2.8-2.5c-3,0-5.8,4.1-9.9,12.3h-0.5c2.6-6.5,3.3-8.4,3.3-9.7c0-1.8-1.1-2.5-2.6-2.5
	c-3.4,0-5.5,4.1-9.4,12.3h-0.5c2.3-5.9,3.4-8.7,3.4-10c0-1.8-1.1-2.2-2.1-2.2c-2.5,0-4.2,2.8-5.5,5.7l0.8,0.2c1.8-3,3.1-3.8,3.9-3.8
	c0.6,0,0.8,0.3,0.8,0.8s-0.2,1.2-0.5,2.5l-4.4,15h2c4-11.2,8.1-18.3,11.2-18.3c0.5,0,1.1,0.3,1.1,1.2c0,0.5-0.1,1-0.7,2.8l-4.8,14.3
	h2c3.9-9.9,9-18.3,12-18.3c0.8,0,1.2,0.3,1.2,1.1c0,0.6-0.3,1.5-1,3l-4,9.2c-0.7,1.6-0.9,2.4-0.9,3.1
	C120.6,29.5,121.8,30.2,123,30.2z M137.5,30.4c2.6,0,5.4-1.8,7.4-4.5c2.1-2.9,3.6-6.7,3.6-10.1c0-4.2-1.9-6.4-5.7-6.4
	c-2.6,0-5.4,1.7-7.4,4.5c-2.1,2.9-3.6,6.7-3.6,10.1C131.8,28.2,133.7,30.4,137.5,30.4z M137.3,29.2c-1.6,0-3.2-1-3.2-3.8
	c0-2.2,1-6,2.6-9.2c1.6-3.1,3.8-5.6,6.3-5.6c1.7,0,3.2,1.1,3.2,3.8c0,2.1-1,6-2.6,9.1C142,26.7,139.8,29.2,137.3,29.2z M164.4,12
	l0.3-1.3h-5l1.9-4.3l-2.5,0.3l-1.4,4.1h-4.3L153,12h4.3l-5.4,13.5c-0.3,0.8-0.5,1.6-0.5,2.2c0,1.9,1.2,2.5,2.4,2.5
	c2.8,0,5-3.1,6.6-6.2l-0.9-0.2c-2.7,3.9-3.9,4.2-4.8,4.2c-0.6,0-0.9-0.4-0.9-1c0-0.4,0.1-0.9,0.3-1.4l5-13.6H164.4z M174.6,5.3
	c1.3,0,2.2-1,2.2-2.2s-1-2.2-2.2-2.2s-2.2,1-2.2,2.2S173.3,5.3,174.6,5.3z M168,30.2c2.6,0,4.3-2.8,5.6-5.8l-0.9-0.3
	c-1.8,3.1-3.1,3.9-3.9,3.9c-1.1,0-1.1-1.3-0.3-3.3l4-9c0.6-1.4,1.2-3,1.2-4.2c0-1.8-1.3-2.2-2.3-2.2c-2.6,0-4.3,2.8-5.6,5.8l0.9,0.3
	c1.8-3.1,3.1-3.9,3.9-3.9c1.1,0,1.1,1.3,0.3,3.3l-4,9c-0.6,1.4-1.2,3-1.2,4.2C165.6,29.8,166.9,30.2,168,30.2z M183.1,30.4
	c2.6,0,5.4-1.8,7.4-4.5c2.1-2.9,3.6-6.7,3.6-10.1c0-4.2-1.9-6.4-5.7-6.4c-2.6,0-5.4,1.7-7.4,4.5c-2.1,2.9-3.6,6.7-3.6,10.1
	C177.4,28.2,179.3,30.4,183.1,30.4z M182.9,29.2c-1.6,0-3.2-1-3.2-3.8c0-2.2,1-6,2.6-9.2c1.6-3.1,3.8-5.6,6.3-5.6
	c1.7,0,3.2,1.1,3.2,3.8c0,2.1-1,6-2.6,9.1C187.6,26.7,185.4,29.2,182.9,29.2z M211.3,30.2c2.4,0,4.1-2.8,5.4-5.8l-0.8-0.2
	c-1.8,3.1-2.9,3.9-3.8,3.9c-0.5,0-0.8-0.3-0.8-1c0-0.7,0.3-1.6,1.1-3.4l2.8-6.6c0.9-2,1.2-3.4,1.2-4.4c0-2.4-1.6-3.3-3.6-3.3
	c-3.4,0-6.4,3.9-10.5,12.3h-0.5c2.3-5.9,3.3-8.7,3.3-10c0-1.8-1.1-2.2-2.1-2.2c-2.5,0-4.2,2.8-5.5,5.7l0.8,0.2
	c1.8-3,3.1-3.8,3.9-3.8c0.6,0,0.8,0.3,0.8,0.8c0,0.5-0.2,1.3-0.5,2.4l-4.5,15.1h2c2.9-8.3,7.9-18.3,12.2-18.3c1.2,0,2.1,0.4,2.1,1.9
	c0,0.7-0.2,1.6-0.9,3.2l-3.7,8.8c-0.4,1-0.6,1.8-0.6,2.4C208.9,29.5,210.1,30.2,211.3,30.2z"/>
<path d="M175.7,72.4c-1.2,0-1.9,0.7-1.9,1.9c0,1.9,1.8,2.3,2.7,4.1c-0.5,5.7-3.1,13.1-7.6,13.1c-1.4,0-2.4-0.5-3-1.2
	c3.6-3.8,5.4-10.3,5.4-14.5c0-2.4-1.2-3.4-2.5-3.4c-3.8,0-6.3,7.3-6.3,12.9c0,1.8,0.3,3.5,0.8,4.7c-1.1,0.8-2.3,1.2-3.5,1.2
	c-2.3,0-4-1.3-4-3.7c0-3.8,2.7-7.6,8-14.7h-1.8l-1.6,2.4c-2.1-2.1-4.2-2.9-5.8-2.9c-3.6,0-5.6,3.7-5.6,6.1c0,1.9,1.3,3,2.9,3
	c1.6,0,2.4-1.1,2.4-2.6c0-1.1-0.4-1.3-1.1-1.3c-1.2,0-1.9,0.6-3,0.3c0.5-2.1,1.8-3.4,3.5-3.4c1.6,0,3.7,0.9,5.9,3.3
	c-3.7,3.3-6.1,6.3-6.1,10.1c0,3.3,2.4,5.4,5.8,5.4c1.9,0,3.6-0.6,5-1.7c0.9,1.1,2.3,1.7,4,1.7c6,0,9.5-9.3,9.5-16.8
	C177.8,73,176.9,72.4,175.7,72.4z M168.6,74.8c0.7,0,1.3,0.7,1.3,1.9c0,3.7-1.9,8.9-4.9,12c-0.5-1.2-0.5-2.6-0.5-3.8
	C164.4,79.4,166.6,74.8,168.6,74.8z M193.7,91.1c-1.2,0-1-1.3-0.3-3.2l5.4-15.8h-2.2l-0.5,1.6c-0.7-0.5-1.6-0.7-2.6-0.7
	c-5.9,0-13.9,10.4-13.9,16.2c0,2.8,1.4,4.3,3.4,4.3c3.5,0,7.1-5.7,11-12.3h0.5c-2.7,5.5-4,8.5-4,10c0,1.6,1,2.1,2.1,2.1
	c2.2,0,4.1-2.8,5.5-5.7l-0.8-0.3C195.9,89.7,194.5,91.1,193.7,91.1z M183.8,91.1c-0.7,0-1.9-0.3-1.9-2.5c0-6.2,7.3-14.1,10.2-14.3
	c1.2,0.1,2.7,0.6,3.6,1.7C190.7,85.6,186.7,91.1,183.8,91.1z M203.7,93.2c2,0,4-1.6,6.5-7l-0.9-0.3c-2.3,4.2-3.7,5.2-4.8,5.2
	c-0.5,0-0.8-0.3-0.8-1c0-0.4,0.1-1,0.7-2.7l8.2-24.4h-0.7l-5.9,1.1l-0.2,0.7l1.6,0.1c1.7,0.1,2.1,1.1,1.4,3.1l-6.6,19.4
	c-0.6,1.8-0.9,2.7-0.9,3.5C201.3,92.4,202.3,93.2,203.7,93.2z M229.6,88.4c-0.8,0-1.3,0.5-1.5,1.1c-0.3,0.8-0.4,1.8-1.1,3
	c-1.6-0.4-5-4.7-6.3-9.2c7.9-0.3,11.4-3.1,11.4-7c0-2.9-2.2-3.9-4.2-3.9c-4.3,0-7,4.3-11.3,12.3h-0.5c1.6-3.3,3.2-6.8,4.3-10.1
	l3.9-11.6h-0.7l-5.9,1.1l-0.2,0.7l1.6,0.1c1.7,0.1,2.1,1.1,1.4,3.1L212,92.8h2.1c1.5-3.9,2.9-7.2,4.3-9.8c1.8,6.2,5.9,10.1,8.7,10.1
	c1.8,0,3.9-1.1,3.9-3.1C231.1,89.1,230.6,88.4,229.6,88.4z M227.3,74.2c1.6,0,2.5,0.9,2.5,2.6c0,3.7-3.9,5.7-11.2,5.9
	C221.9,76.7,224.8,74.2,227.3,74.2z M244.8,68.3c1.3,0,2.2-1,2.2-2.2c0-1.3-1-2.2-2.2-2.2c-1.3,0-2.2,1-2.2,2.2
	C242.6,67.4,243.5,68.3,244.8,68.3z M238.1,93.2c2.6,0,4.3-2.8,5.6-5.8l-0.9-0.3c-1.8,3.2-3.1,3.9-3.9,3.9c-1.1,0-1.1-1.3-0.3-3.3
	l4-9c0.6-1.4,1.2-3,1.2-4.2c0-1.8-1.3-2.2-2.3-2.2c-2.6,0-4.3,2.8-5.6,5.8l0.9,0.3c1.8-3.2,3.1-3.9,3.9-3.9c1.1,0,1.1,1.3,0.3,3.3
	l-4,9c-0.6,1.4-1.2,3-1.2,4.2C235.8,92.8,237.1,93.2,238.1,93.2z M262.3,93.2c2.4,0,4.1-2.8,5.4-5.8l-0.8-0.2
	c-1.8,3.1-2.9,3.9-3.8,3.9c-0.5,0-0.8-0.3-0.8-1c0-0.7,0.3-1.6,1.1-3.4l2.8-6.6c0.9-2,1.2-3.4,1.2-4.4c0-2.4-1.6-3.3-3.6-3.3
	c-3.4,0-6.4,3.9-10.5,12.3h-0.5c2.3-5.9,3.3-8.7,3.3-10c0-1.8-1.1-2.2-2.1-2.2c-2.5,0-4.2,2.8-5.5,5.7l0.8,0.2
	c1.8-3,3.1-3.8,3.9-3.8c0.6,0,0.8,0.3,0.8,0.8c0,0.5-0.2,1.3-0.5,2.4l-4.5,15.1h2c2.9-8.3,7.9-18.3,12.2-18.3c1.2,0,2.1,0.4,2.1,1.9
	c0,0.7-0.2,1.6-0.9,3.1l-3.7,8.8c-0.4,1-0.6,1.8-0.6,2.4C259.9,92.5,261.1,93.2,262.3,93.2z M283.6,73.7c-0.8-0.8-2-1.3-3.4-1.3
	c-2,0-3.4,0.8-4.6,2.2c-1.6,1.8-2.7,4.5-2.7,6.9c0,2.2,0.9,3.7,2.4,4.4c-1.5,0.6-2.4,1.5-2.4,2.7c0,0.9,0.5,1.8,2.4,2.9
	c-6.5,0.6-8.2,2.7-8.2,5c0,3.2,4.5,5.4,9.9,5.4c5.2,0,7.8-1.9,7.8-4.7c0-1.8-0.9-3.3-4.7-5.4l-1.8-1c-2.9-1.6-3.3-2.1-3.3-2.8
	c0-0.7,0.2-1.1,1.2-1.8c0.5,0.1,1,0.2,1.6,0.2c2,0,3.4-0.8,4.6-2.2c1.6-1.8,2.7-4.5,2.7-6.9c0-0.9-0.1-1.6-0.4-2.3h4.2l0.4-1.3
	H283.6z M280.4,83.1c-0.9,1.2-2,2.1-3.4,2.1c-1.1,0-2.3-0.6-2.3-2.6c0-1.8,0.9-4.9,2.5-7c0.9-1.2,2-2.1,3.4-2.1
	c1.1,0,2.3,0.6,2.3,2.6C282.9,78,282,81,280.4,83.1z M278.1,93.2c3.4,1.8,4.2,3,4.2,4.3c0,1.8-1.7,3.4-5.5,3.4
	c-3.4,0-7.6-1.4-7.6-4.4c0-2.1,2-3.5,6.7-4.5l0.3,0.1L278.1,93.2z"/>
</svg>
