<?xml version="1.0" encoding="utf-8"?>
<!-- Generator: Adobe Illustrator 25.1.0, SVG Export Plug-In . SVG Version: 6.00 Build 0)  -->
<svg version="1.1" id="Layer_1" xmlns="http://www.w3.org/2000/svg" xmlns:xlink="http://www.w3.org/1999/xlink" x="0px" y="0px"
	 viewBox="0 0 289 101.9" style="enable-background:new 0 0 289 101.9;" xml:space="preserve">
<path d="M16,86.4l0.2-0.9h-4.8l1-4.6h-0.9l-1,4.6H2.1c3.1-3,7.6-8.2,10.8-13.3L12,72.1C9.3,76.4,4.4,82.3,0.8,85.6l-0.2,0.9h9.1
	l0.4,0.5l-0.8,3.9h0.9l0.8-3.9l0.6-0.5H16z M23.8,89.4c0,0.9,0.7,1.7,1.7,1.7c0.9,0,1.6-0.8,1.6-1.7s-0.7-1.7-1.6-1.7
	C24.5,87.8,23.8,88.5,23.8,89.4z"/>
<path d="M18,27.2l-2.2-26h-6L9.4,2.4c3.7,0.1,3.4,0.9,2.2,4.2L5.1,24.4c-1.4,3.8-2.2,4.2-4.8,4.4L0,29.8h10l0.3-1.1
	c-4.8-0.1-4.8-1-3.6-4.4L13.9,5l2.2,24.9h2L33.4,5.1l-2.6,19.1c-0.5,3.9-1.7,4.4-5.6,4.5L25,29.8h10.5l0.3-1.1
	c-3.2-0.1-3.2-1-2.7-4.3l2.4-17.9c0.5-3.7,1.3-4,3.8-4.2l0.3-1.1H34L18,27.2z M44.6,30.4c3.2,0,6.4-4.3,10.4-12.3h0.5
	c-3.2,7.6-3.5,8.5-3.5,10c0,1.5,1.2,2.2,2.2,2.2c2.5,0,4.2-2.8,5.5-5.7L59,24.4c-1.8,3-3,3.7-3.7,3.7c-0.7,0-0.9-0.3-0.9-0.8
	c0-0.6,0.2-1.5,0.5-2.7l4.4-14.6h-2c-2.9,8.2-8.1,18.2-12.4,18.2c-1,0-2-0.3-2-1.8c0-0.7,0.3-1.7,1.1-3.4l3.6-7.9
	c0.5-1.1,1-2.4,1-3.4c0-1.8-1.3-2.2-2.4-2.2c-2.5,0-4.2,2.8-5.5,5.7l0.8,0.2c1.8-3,3-3.8,3.9-3.8c0.6,0,0.8,0.3,0.8,0.9
	c0,0.7-0.3,1.6-0.8,2.9l-3.2,6.8c-1.2,2.5-1.5,3.8-1.5,4.9C40.8,29.4,42.5,30.4,44.6,30.4z M76.1,12l0.3-1.3h-5l1.9-4.3l-2.5,0.3
	l-1.4,4.1h-4.3L64.7,12H69l-5.4,13.5c-0.3,0.8-0.5,1.6-0.5,2.2c0,1.9,1.2,2.5,2.4,2.5c2.8,0,5-3.1,6.6-6.2l-0.9-0.2
	c-2.7,3.9-3.9,4.2-4.8,4.2c-0.6,0-0.9-0.4-0.9-1c0-0.4,0.1-0.9,0.3-1.4l5-13.6H76.1z M81.4,30.4c3.2,0,6.4-4.3,10.4-12.3h0.5
	c-3.2,7.6-3.5,8.5-3.5,10c0,1.5,1.2,2.2,2.2,2.2c2.5,0,4.2-2.8,5.5-5.7l-0.8-0.3c-1.8,3-3,3.7-3.7,3.7c-0.7,0-0.9-0.3-0.9-0.8
	c0-0.6,0.2-1.5,0.5-2.7l4.4-14.6h-2c-2.9,8.2-8.1,18.2-12.4,18.2c-1,0-2-0.3-2-1.8c0-0.7,0.3-1.7,1.1-3.4l3.6-7.9
	c0.5-1.1,1-2.4,1-3.4c0-1.8-1.3-2.2-2.4-2.2c-2.5,0-4.2,2.8-5.5,5.7l0.8,0.2c1.8-3,3-3.8,3.9-3.8c0.6,0,0.8,0.3,0.8,0.9
	c0,0.7-0.3,1.6-0.8,2.9L79,22.1c-1.2,2.5-1.5,3.8-1.5,4.9C77.6,29.4,79.2,30.4,81.4,30.4z M112.9,28.1c-1.2,0-1-1.3-0.3-3.2L118,9.1
	h-2.2l-0.5,1.6c-0.7-0.5-1.6-0.7-2.6-0.7c-5.9,0-13.9,10.4-13.9,16.2c0,2.8,1.4,4.3,3.4,4.3c3.5,0,7.1-5.7,11-12.3h0.5
	c-2.7,5.5-4,8.5-4,10c0,1.6,1,2.1,2.1,2.1c2.2,0,4.1-2.8,5.5-5.7l-0.8-0.3C115.1,26.7,113.7,28.1,112.9,28.1z M103,28.1
	c-0.7,0-1.9-0.3-1.9-2.5c0-6.2,7.3-14.1,10.2-14.3c1.2,0.1,2.7,0.6,3.6,1.7C109.9,22.6,105.9,28.1,103,28.1z M122.9,30.2
	c2,0,4-1.6,6.5-7l-0.9-0.3c-2.3,4.2-3.7,5.2-4.8,5.2c-0.5,0-0.8-0.3-0.8-1c0-0.4,0.1-1,0.7-2.7L131.8,0h-0.7l-5.9,1.1L125,1.8
	l1.6,0.1c1.7,0.1,2.1,1.1,1.4,3.1l-6.6,19.4c-0.6,1.8-0.9,2.7-0.9,3.5C120.5,29.4,121.5,30.2,122.9,30.2z"/>
<path d="M187.3,73.7c-0.8-0.8-2-1.3-3.4-1.3c-2,0-3.4,0.8-4.6,2.2c-1.6,1.8-2.7,4.5-2.7,6.9c0,2.2,0.9,3.7,2.4,4.4
	c-1.5,0.6-2.4,1.5-2.4,2.7c0,0.9,0.5,1.8,2.4,2.9c-6.5,0.6-8.2,2.7-8.2,5c0,3.2,4.5,5.4,9.9,5.4c5.2,0,7.8-1.9,7.8-4.7
	c0-1.8-0.9-3.3-4.7-5.4l-1.8-1c-2.9-1.6-3.3-2.1-3.3-2.8c0-0.7,0.2-1.1,1.2-1.8c0.5,0.1,1,0.2,1.6,0.2c2,0,3.4-0.8,4.6-2.2
	c1.6-1.8,2.7-4.5,2.7-6.9c0-0.9-0.1-1.6-0.4-2.3h4.2l0.4-1.3H187.3z M184.1,83.1c-0.9,1.2-2,2.1-3.4,2.1c-1.1,0-2.3-0.6-2.3-2.6
	c0-1.8,0.9-4.9,2.5-7c0.9-1.2,2-2.1,3.4-2.1c1.1,0,2.3,0.6,2.3,2.6C186.6,78,185.7,81,184.1,83.1z M181.9,93.2
	c3.4,1.8,4.2,3,4.2,4.3c0,1.8-1.7,3.4-5.5,3.4c-3.4,0-7.6-1.4-7.6-4.4c0-2.1,2-3.5,6.7-4.5l0.3,0.1L181.9,93.2z M205.3,91.1
	c-1.2,0-1-1.3-0.3-3.2l5.4-15.8h-2.2l-0.5,1.6c-0.7-0.5-1.6-0.7-2.6-0.7c-5.9,0-13.9,10.4-13.9,16.2c0,2.8,1.4,4.3,3.4,4.3
	c3.5,0,7.1-5.7,11-12.3h0.5c-2.7,5.5-4,8.5-4,10c0,1.6,1,2.1,2.1,2.1c2.2,0,4.1-2.8,5.5-5.7l-0.8-0.3
	C207.5,89.7,206.1,91.1,205.3,91.1z M195.3,91.1c-0.7,0-1.9-0.3-1.9-2.5c0-6.2,7.3-14.1,10.2-14.3c1.2,0.1,2.7,0.6,3.6,1.7
	C202.2,85.6,198.2,91.1,195.3,91.1z M228.9,84.4c-1.5,0-2.4,1-2.4,2.5c0,1.1,0.5,1.3,1.1,1.3c0.8,0,1.8-0.4,2.6,0
	c0,1.5-1.6,3.7-3.1,3.7c-2.7,0-6.8-6.3-11.4-3.2l-0.1-0.2l20.2-15.4l-1.3-1.1L230,76c-3.3-2-6.6-3.6-9.2-3.6c-3.7,0-5.8,3-5.8,5.5
	c0,1.6,1.1,2.6,2.5,2.6c1.4,0,2.3-1.1,2.3-2.4c0-1-0.4-1.2-1-1.2c-0.8,0-1.9,0.4-2.6,0.1c0.1-1.2,1.6-3,3.4-3c2.9,0,5.9,4.7,9.2,2.8
	l0.2,0.2l-17.4,12.9c0,0.3-0.1,0.8-0.1,1.1c0,1.4,0.7,2.1,1.8,2.1c1.2,0,2-0.8,2-2c0-0.5-0.1-1-0.5-1.6c5.3-0.4,6.8,3.9,11,3.9
	c4.4,0,5.7-4.5,5.7-6.4C231.4,85.3,230.3,84.4,228.9,84.4z M244.8,68.3c1.3,0,2.2-1,2.2-2.2c0-1.3-1-2.2-2.2-2.2
	c-1.3,0-2.2,1-2.2,2.2C242.6,67.4,243.6,68.3,244.8,68.3z M238.2,93.2c2.6,0,4.3-2.8,5.6-5.8l-0.9-0.3c-1.8,3.2-3.1,3.9-3.9,3.9
	c-1.1,0-1.1-1.3-0.3-3.3l4-9c0.6-1.4,1.2-3,1.2-4.2c0-1.8-1.3-2.2-2.3-2.2c-2.6,0-4.3,2.8-5.6,5.8l0.9,0.3c1.8-3.2,3.1-3.9,3.9-3.9
	c1.1,0,1.1,1.3,0.3,3.3l-4,9c-0.6,1.4-1.2,3-1.2,4.2C235.9,92.8,237.2,93.2,238.2,93.2z M262.3,93.2c2.4,0,4.1-2.8,5.4-5.8l-0.8-0.2
	c-1.8,3.1-2.9,3.9-3.8,3.9c-0.5,0-0.8-0.3-0.8-1c0-0.7,0.3-1.6,1.1-3.4l2.8-6.6c0.9-2,1.2-3.4,1.2-4.4c0-2.4-1.6-3.3-3.6-3.3
	c-3.4,0-6.4,3.9-10.5,12.3h-0.5c2.3-5.9,3.3-8.7,3.3-10c0-1.8-1.1-2.2-2.1-2.2c-2.5,0-4.2,2.8-5.5,5.7l0.8,0.2
	c1.8-3,3.1-3.8,3.9-3.8c0.6,0,0.8,0.3,0.8,0.8c0,0.5-0.2,1.3-0.5,2.4l-4.5,15.1h2c2.9-8.3,7.9-18.3,12.2-18.3c1.2,0,2.1,0.4,2.1,1.9
	c0,0.7-0.2,1.6-0.9,3.1l-3.7,8.8c-0.4,1-0.6,1.8-0.6,2.4C260,92.5,261.2,93.2,262.3,93.2z M283.6,73.7c-0.8-0.8-2-1.3-3.4-1.3
	c-2,0-3.4,0.8-4.6,2.2c-1.6,1.8-2.7,4.5-2.7,6.9c0,2.2,0.9,3.7,2.4,4.4c-1.5,0.6-2.4,1.5-2.4,2.7c0,0.9,0.5,1.8,2.4,2.9
	c-6.5,0.6-8.2,2.7-8.2,5c0,3.2,4.5,5.4,9.9,5.4c5.2,0,7.8-1.9,7.8-4.7c0-1.8-0.9-3.3-4.7-5.4l-1.8-1c-2.9-1.6-3.3-2.1-3.3-2.8
	c0-0.7,0.2-1.1,1.2-1.8c0.5,0.1,1,0.2,1.6,0.2c2,0,3.4-0.8,4.6-2.2c1.6-1.8,2.7-4.5,2.7-6.9c0-0.9-0.1-1.6-0.4-2.3h4.2l0.4-1.3
	H283.6z M280.5,83.1c-0.9,1.2-2,2.1-3.4,2.1c-1.1,0-2.3-0.6-2.3-2.6c0-1.8,0.9-4.9,2.5-7c0.9-1.2,2-2.1,3.4-2.1
	c1.1,0,2.3,0.6,2.3,2.6C282.9,78,282,81,280.5,83.1z M278.2,93.2c3.4,1.8,4.2,3,4.2,4.3c0,1.8-1.7,3.4-5.5,3.4
	c-3.4,0-7.6-1.4-7.6-4.4c0-2.1,2-3.5,6.7-4.5l0.3,0.1L278.2,93.2z"/>
</svg>
